<svg width="360" height="73" viewBox="0 0 360 73" fill="none" xmlns="http://www.w3.org/2000/svg">
<g filter="url(#filter0_d)">
<rect x="17" y="10" width="332" height="45" rx="10" fill="#58C2A9"/>
</g>
<path d="M46.731 33.067C46.731 31.911 46.9917 30.874 47.513 29.956C48.0343 29.0267 48.7427 28.3013 49.638 27.78C50.5447 27.2587 51.5477 26.998 52.647 26.998C53.939 26.998 55.0667 27.3097 56.03 27.933C56.9933 28.5563 57.696 29.4403 58.138 30.585H56.285C55.9563 29.871 55.4803 29.3213 54.857 28.936C54.245 28.5507 53.5083 28.358 52.647 28.358C51.8197 28.358 51.0773 28.5507 50.42 28.936C49.7627 29.3213 49.247 29.871 48.873 30.585C48.499 31.2877 48.312 32.115 48.312 33.067C48.312 34.0077 48.499 34.835 48.873 35.549C49.247 36.2517 49.7627 36.7957 50.42 37.181C51.0773 37.5663 51.8197 37.759 52.647 37.759C53.5083 37.759 54.245 37.572 54.857 37.198C55.4803 36.8127 55.9563 36.263 56.285 35.549H58.138C57.696 36.6823 56.9933 37.5607 56.03 38.184C55.0667 38.796 53.939 39.102 52.647 39.102C51.5477 39.102 50.5447 38.847 49.638 38.337C48.7427 37.8157 48.0343 37.096 47.513 36.178C46.9917 35.26 46.731 34.223 46.731 33.067ZM61.9878 31.197C62.2598 30.6643 62.6452 30.2507 63.1438 29.956C63.6538 29.6613 64.2715 29.514 64.9968 29.514V31.112H64.5888C62.8548 31.112 61.9878 32.0527 61.9878 33.934V39H60.4408V29.684H61.9878V31.197ZM75.2826 33.985C75.2826 34.2797 75.2656 34.5913 75.2316 34.92H67.7856C67.8423 35.838 68.154 36.5577 68.7206 37.079C69.2986 37.589 69.9956 37.844 70.8116 37.844C71.4803 37.844 72.0356 37.691 72.4776 37.385C72.931 37.0677 73.2483 36.6483 73.4296 36.127H75.0956C74.8463 37.0223 74.3476 37.7533 73.5996 38.32C72.8516 38.8753 71.9223 39.153 70.8116 39.153C69.9276 39.153 69.1343 38.9547 68.4316 38.558C67.7403 38.1613 67.1963 37.6003 66.7996 36.875C66.403 36.1383 66.2046 35.2883 66.2046 34.325C66.2046 33.3617 66.3973 32.5173 66.7826 31.792C67.168 31.0667 67.7063 30.5113 68.3976 30.126C69.1003 29.7293 69.905 29.531 70.8116 29.531C71.6956 29.531 72.4776 29.7237 73.1576 30.109C73.8376 30.4943 74.359 31.027 74.7216 31.707C75.0956 32.3757 75.2826 33.135 75.2826 33.985ZM73.6846 33.662C73.6846 33.0727 73.5543 32.5683 73.2936 32.149C73.033 31.7183 72.676 31.3953 72.2226 31.18C71.7806 30.9533 71.2876 30.84 70.7436 30.84C69.9616 30.84 69.293 31.0893 68.7376 31.588C68.1936 32.0867 67.882 32.778 67.8026 33.662H73.6846ZM76.7466 34.308C76.7466 33.356 76.9393 32.523 77.3246 31.809C77.71 31.0837 78.237 30.5227 78.9056 30.126C79.5856 29.7293 80.3393 29.531 81.1666 29.531C81.9826 29.531 82.691 29.7067 83.2916 30.058C83.8923 30.4093 84.34 30.8513 84.6346 31.384V29.684H86.1986V39H84.6346V37.266C84.3286 37.81 83.8696 38.2633 83.2576 38.626C82.657 38.9773 81.9543 39.153 81.1496 39.153C80.3223 39.153 79.5743 38.949 78.9056 38.541C78.237 38.133 77.71 37.5607 77.3246 36.824C76.9393 36.0873 76.7466 35.2487 76.7466 34.308ZM84.6346 34.325C84.6346 33.6223 84.493 33.0103 84.2096 32.489C83.9263 31.9677 83.541 31.571 83.0536 31.299C82.5776 31.0157 82.0506 30.874 81.4726 30.874C80.8946 30.874 80.3676 31.01 79.8916 31.282C79.4156 31.554 79.036 31.9507 78.7526 32.472C78.4693 32.9933 78.3276 33.6053 78.3276 34.308C78.3276 35.022 78.4693 35.6453 78.7526 36.178C79.036 36.6993 79.4156 37.1017 79.8916 37.385C80.3676 37.657 80.8946 37.793 81.4726 37.793C82.0506 37.793 82.5776 37.657 83.0536 37.385C83.541 37.1017 83.9263 36.6993 84.2096 36.178C84.493 35.6453 84.6346 35.0277 84.6346 34.325ZM90.6999 30.959V36.45C90.6999 36.9033 90.7962 37.2263 90.9889 37.419C91.1816 37.6003 91.5159 37.691 91.9919 37.691H93.1309V39H91.7369C90.8756 39 90.2296 38.8017 89.7989 38.405C89.3682 38.0083 89.1529 37.3567 89.1529 36.45V30.959H87.9459V29.684H89.1529V27.338H90.6999V29.684H93.1309V30.959H90.6999ZM103.505 33.985C103.505 34.2797 103.488 34.5913 103.454 34.92H96.0083C96.065 35.838 96.3766 36.5577 96.9433 37.079C97.5213 37.589 98.2183 37.844 99.0343 37.844C99.703 37.844 100.258 37.691 100.7 37.385C101.154 37.0677 101.471 36.6483 101.652 36.127H103.318C103.069 37.0223 102.57 37.7533 101.822 38.32C101.074 38.8753 100.145 39.153 99.0343 39.153C98.1503 39.153 97.357 38.9547 96.6543 38.558C95.963 38.1613 95.419 37.6003 95.0223 36.875C94.6256 36.1383 94.4273 35.2883 94.4273 34.325C94.4273 33.3617 94.62 32.5173 95.0053 31.792C95.3906 31.0667 95.929 30.5113 96.6203 30.126C97.323 29.7293 98.1276 29.531 99.0343 29.531C99.9183 29.531 100.7 29.7237 101.38 30.109C102.06 30.4943 102.582 31.027 102.944 31.707C103.318 32.3757 103.505 33.135 103.505 33.985ZM101.907 33.662C101.907 33.0727 101.777 32.5683 101.516 32.149C101.256 31.7183 100.899 31.3953 100.445 31.18C100.003 30.9533 99.5103 30.84 98.9663 30.84C98.1843 30.84 97.5156 31.0893 96.9603 31.588C96.4163 32.0867 96.1046 32.778 96.0253 33.662H101.907ZM114.619 29.514C115.752 29.514 116.67 29.8597 117.373 30.551C118.075 31.231 118.427 32.217 118.427 33.509V39H116.897V33.73C116.897 32.8007 116.664 32.0923 116.2 31.605C115.735 31.1063 115.1 30.857 114.296 30.857C113.48 30.857 112.828 31.112 112.341 31.622C111.865 32.132 111.627 32.8743 111.627 33.849V39H110.08V29.684H111.627V31.01C111.933 30.534 112.346 30.1657 112.868 29.905C113.4 29.6443 113.984 29.514 114.619 29.514ZM129.454 33.985C129.454 34.2797 129.437 34.5913 129.403 34.92H121.957C122.013 35.838 122.325 36.5577 122.892 37.079C123.47 37.589 124.167 37.844 124.983 37.844C125.651 37.844 126.207 37.691 126.649 37.385C127.102 37.0677 127.419 36.6483 127.601 36.127H129.267C129.017 37.0223 128.519 37.7533 127.771 38.32C127.023 38.8753 126.093 39.153 124.983 39.153C124.099 39.153 123.305 38.9547 122.603 38.558C121.911 38.1613 121.367 37.6003 120.971 36.875C120.574 36.1383 120.376 35.2883 120.376 34.325C120.376 33.3617 120.568 32.5173 120.954 31.792C121.339 31.0667 121.877 30.5113 122.569 30.126C123.271 29.7293 124.076 29.531 124.983 29.531C125.867 29.531 126.649 29.7237 127.329 30.109C128.009 30.4943 128.53 31.027 128.893 31.707C129.267 32.3757 129.454 33.135 129.454 33.985ZM127.856 33.662C127.856 33.0727 127.725 32.5683 127.465 32.149C127.204 31.7183 126.847 31.3953 126.394 31.18C125.952 30.9533 125.459 30.84 124.915 30.84C124.133 30.84 123.464 31.0893 122.909 31.588C122.365 32.0867 122.053 32.778 121.974 33.662H127.856ZM143.906 29.684L140.999 39H139.401L137.157 31.605L134.913 39H133.315L130.391 29.684H131.972L134.114 37.504L136.426 29.684H138.007L140.268 37.521L142.376 29.684H143.906ZM151.52 31.197C151.792 30.6643 152.177 30.2507 152.676 29.956C153.186 29.6613 153.804 29.514 154.529 29.514V31.112H154.121C152.387 31.112 151.52 32.0527 151.52 33.934V39H149.973V29.684H151.52V31.197ZM164.815 33.985C164.815 34.2797 164.798 34.5913 164.764 34.92H157.318C157.375 35.838 157.686 36.5577 158.253 37.079C158.831 37.589 159.528 37.844 160.344 37.844C161.013 37.844 161.568 37.691 162.01 37.385C162.463 37.0677 162.781 36.6483 162.962 36.127H164.628C164.379 37.0223 163.88 37.7533 163.132 38.32C162.384 38.8753 161.455 39.153 160.344 39.153C159.46 39.153 158.667 38.9547 157.964 38.558C157.273 38.1613 156.729 37.6003 156.332 36.875C155.935 36.1383 155.737 35.2883 155.737 34.325C155.737 33.3617 155.93 32.5173 156.315 31.792C156.7 31.0667 157.239 30.5113 157.93 30.126C158.633 29.7293 159.437 29.531 160.344 29.531C161.228 29.531 162.01 29.7237 162.69 30.109C163.37 30.4943 163.891 31.027 164.254 31.707C164.628 32.3757 164.815 33.135 164.815 33.985ZM163.217 33.662C163.217 33.0727 163.087 32.5683 162.826 32.149C162.565 31.7183 162.208 31.3953 161.755 31.18C161.313 30.9533 160.82 30.84 160.276 30.84C159.494 30.84 158.825 31.0893 158.27 31.588C157.726 32.0867 157.414 32.778 157.335 33.662H163.217ZM178.06 29.514C178.785 29.514 179.431 29.667 179.998 29.973C180.565 30.2677 181.012 30.7153 181.341 31.316C181.67 31.9167 181.834 32.6477 181.834 33.509V39H180.304V33.73C180.304 32.8007 180.072 32.0923 179.607 31.605C179.154 31.1063 178.536 30.857 177.754 30.857C176.949 30.857 176.309 31.1177 175.833 31.639C175.357 32.149 175.119 32.8913 175.119 33.866V39H173.589V33.73C173.589 32.8007 173.357 32.0923 172.892 31.605C172.439 31.1063 171.821 30.857 171.039 30.857C170.234 30.857 169.594 31.1177 169.118 31.639C168.642 32.149 168.404 32.8913 168.404 33.866V39H166.857V29.684H168.404V31.027C168.71 30.5397 169.118 30.1657 169.628 29.905C170.149 29.6443 170.722 29.514 171.345 29.514C172.127 29.514 172.818 29.6897 173.419 30.041C174.02 30.3923 174.467 30.908 174.762 31.588C175.023 30.9307 175.453 30.4207 176.054 30.058C176.655 29.6953 177.323 29.514 178.06 29.514ZM185.171 28.171C184.876 28.171 184.627 28.069 184.423 27.865C184.219 27.661 184.117 27.4117 184.117 27.117C184.117 26.8223 184.219 26.573 184.423 26.369C184.627 26.165 184.876 26.063 185.171 26.063C185.454 26.063 185.692 26.165 185.885 26.369C186.089 26.573 186.191 26.8223 186.191 27.117C186.191 27.4117 186.089 27.661 185.885 27.865C185.692 28.069 185.454 28.171 185.171 28.171ZM185.919 29.684V39H184.372V29.684H185.919ZM193.094 29.514C194.227 29.514 195.145 29.8597 195.848 30.551C196.551 31.231 196.902 32.217 196.902 33.509V39H195.372V33.73C195.372 32.8007 195.14 32.0923 194.675 31.605C194.21 31.1063 193.576 30.857 192.771 30.857C191.955 30.857 191.303 31.112 190.816 31.622C190.34 32.132 190.102 32.8743 190.102 33.849V39H188.555V29.684H190.102V31.01C190.408 30.534 190.822 30.1657 191.343 29.905C191.876 29.6443 192.459 29.514 193.094 29.514ZM198.851 34.308C198.851 33.356 199.044 32.523 199.429 31.809C199.814 31.0837 200.341 30.5227 201.01 30.126C201.69 29.7293 202.449 29.531 203.288 29.531C204.013 29.531 204.688 29.701 205.311 30.041C205.934 30.3697 206.41 30.806 206.739 31.35V26.42H208.303V39H206.739V37.249C206.433 37.8043 205.98 38.2633 205.379 38.626C204.778 38.9773 204.076 39.153 203.271 39.153C202.444 39.153 201.69 38.949 201.01 38.541C200.341 38.133 199.814 37.5607 199.429 36.824C199.044 36.0873 198.851 35.2487 198.851 34.308ZM206.739 34.325C206.739 33.6223 206.597 33.0103 206.314 32.489C206.031 31.9677 205.645 31.571 205.158 31.299C204.682 31.0157 204.155 30.874 203.577 30.874C202.999 30.874 202.472 31.01 201.996 31.282C201.52 31.554 201.14 31.9507 200.857 32.472C200.574 32.9933 200.432 33.6053 200.432 34.308C200.432 35.022 200.574 35.6453 200.857 36.178C201.14 36.6993 201.52 37.1017 201.996 37.385C202.472 37.657 202.999 37.793 203.577 37.793C204.155 37.793 204.682 37.657 205.158 37.385C205.645 37.1017 206.031 36.6993 206.314 36.178C206.597 35.6453 206.739 35.0277 206.739 34.325ZM219.417 33.985C219.417 34.2797 219.4 34.5913 219.366 34.92H211.92C211.977 35.838 212.289 36.5577 212.855 37.079C213.433 37.589 214.13 37.844 214.946 37.844C215.615 37.844 216.17 37.691 216.612 37.385C217.066 37.0677 217.383 36.6483 217.564 36.127H219.23C218.981 37.0223 218.482 37.7533 217.734 38.32C216.986 38.8753 216.057 39.153 214.946 39.153C214.062 39.153 213.269 38.9547 212.566 38.558C211.875 38.1613 211.331 37.6003 210.934 36.875C210.538 36.1383 210.339 35.2883 210.339 34.325C210.339 33.3617 210.532 32.5173 210.917 31.792C211.303 31.0667 211.841 30.5113 212.532 30.126C213.235 29.7293 214.04 29.531 214.946 29.531C215.83 29.531 216.612 29.7237 217.292 30.109C217.972 30.4943 218.494 31.027 218.856 31.707C219.23 32.3757 219.417 33.135 219.417 33.985ZM217.819 33.662C217.819 33.0727 217.689 32.5683 217.428 32.149C217.168 31.7183 216.811 31.3953 216.357 31.18C215.915 30.9533 215.422 30.84 214.878 30.84C214.096 30.84 213.428 31.0893 212.872 31.588C212.328 32.0867 212.017 32.778 211.937 33.662H217.819ZM223.006 31.197C223.278 30.6643 223.664 30.2507 224.162 29.956C224.672 29.6613 225.29 29.514 226.015 29.514V31.112H225.607C223.873 31.112 223.006 32.0527 223.006 33.934V39H221.459V29.684H223.006V31.197Z" fill="white"/>
<g filter="url(#filter1_d)">
<circle cx="312" cy="32" r="15" fill="white"/>
</g>
<path d="M307.302 31.952H311.406V27.848H312.594V31.952H316.698V33.14H312.594V37.244H311.406V33.14H307.302V31.952Z" fill="black"/>
<defs>
<filter id="filter0_d" x="0" y="0" width="360" height="73" filterUnits="userSpaceOnUse" color-interpolation-filters="sRGB">
<feFlood flood-opacity="0" result="BackgroundImageFix"/>
<feColorMatrix in="SourceAlpha" type="matrix" values="0 0 0 0 0 0 0 0 0 0 0 0 0 0 0 0 0 0 127 0"/>
<feOffset dx="-3" dy="4"/>
<feGaussianBlur stdDeviation="7"/>
<feColorMatrix type="matrix" values="0 0 0 0 0 0 0 0 0 0 0 0 0 0 0 0 0 0 0.15 0"/>
<feBlend mode="normal" in2="BackgroundImageFix" result="effect1_dropShadow"/>
<feBlend mode="normal" in="SourceGraphic" in2="effect1_dropShadow" result="shape"/>
</filter>
<filter id="filter1_d" x="280" y="7" width="58" height="58" filterUnits="userSpaceOnUse" color-interpolation-filters="sRGB">
<feFlood flood-opacity="0" result="BackgroundImageFix"/>
<feColorMatrix in="SourceAlpha" type="matrix" values="0 0 0 0 0 0 0 0 0 0 0 0 0 0 0 0 0 0 127 0"/>
<feOffset dx="-3" dy="4"/>
<feGaussianBlur stdDeviation="7"/>
<feColorMatrix type="matrix" values="0 0 0 0 0 0 0 0 0 0 0 0 0 0 0 0 0 0 0.15 0"/>
<feBlend mode="normal" in2="BackgroundImageFix" result="effect1_dropShadow"/>
<feBlend mode="normal" in="SourceGraphic" in2="effect1_dropShadow" result="shape"/>
</filter>
</defs>
</svg>
