<svg width="141" height="69" viewBox="0 0 141 69" fill="none" xmlns="http://www.w3.org/2000/svg">
<g filter="url(#filter0_d)">
<rect x="17" y="10" width="113" height="41" rx="10" fill="#49A8B2"/>
<path d="M66.9761 36H65.3801L60.5781 28.734V36H58.9821V26.256H60.5781L65.3801 33.508V26.256H66.9761V36ZM76.212 31.954C76.212 32.2433 76.1933 32.5047 76.156 32.738H70.262C70.3086 33.354 70.5373 33.8487 70.948 34.222C71.3586 34.5953 71.8626 34.782 72.46 34.782C73.3186 34.782 73.9253 34.4227 74.28 33.704H76.002C75.7686 34.4133 75.344 34.9967 74.728 35.454C74.1213 35.902 73.3653 36.126 72.46 36.126C71.7226 36.126 71.06 35.9627 70.472 35.636C69.8933 35.3 69.436 34.8333 69.1 34.236C68.7733 33.6293 68.61 32.9293 68.61 32.136C68.61 31.3427 68.7686 30.6473 69.086 30.05C69.4126 29.4433 69.8653 28.9767 70.444 28.65C71.032 28.3233 71.704 28.16 72.46 28.16C73.188 28.16 73.8366 28.3187 74.406 28.636C74.9753 28.9533 75.4186 29.4013 75.736 29.98C76.0533 30.5493 76.212 31.2073 76.212 31.954ZM74.546 31.45C74.5366 30.862 74.3266 30.3907 73.916 30.036C73.5053 29.6813 72.9966 29.504 72.39 29.504C71.8393 29.504 71.368 29.6813 70.976 30.036C70.584 30.3813 70.3506 30.8527 70.276 31.45H74.546ZM81.1566 32.094L83.6486 36H81.8426L80.1766 33.382L78.6086 36H76.9426L79.4346 32.206L76.9426 28.286H78.7486L80.4146 30.904L81.9826 28.286H83.6486L81.1566 32.094ZM86.7709 29.588V33.858C86.7709 34.1473 86.8362 34.3573 86.9669 34.488C87.1069 34.6093 87.3402 34.67 87.6669 34.67H88.6469V36H87.3869C86.6682 36 86.1176 35.832 85.7349 35.496C85.3522 35.16 85.1609 34.614 85.1609 33.858V29.588H84.2509V28.286H85.1609V26.368H86.7709V28.286H88.6469V29.588H86.7709Z" fill="white"/>
</g>
<defs>
<filter id="filter0_d" x="0" y="0" width="141" height="69" filterUnits="userSpaceOnUse" color-interpolation-filters="sRGB">
<feFlood flood-opacity="0" result="BackgroundImageFix"/>
<feColorMatrix in="SourceAlpha" type="matrix" values="0 0 0 0 0 0 0 0 0 0 0 0 0 0 0 0 0 0 127 0"/>
<feOffset dx="-3" dy="4"/>
<feGaussianBlur stdDeviation="7"/>
<feColorMatrix type="matrix" values="0 0 0 0 0 0 0 0 0 0 0 0 0 0 0 0 0 0 0.15 0"/>
<feBlend mode="normal" in2="BackgroundImageFix" result="effect1_dropShadow"/>
<feBlend mode="normal" in="SourceGraphic" in2="effect1_dropShadow" result="shape"/>
</filter>
</defs>
</svg>
