<svg width="141" height="69" viewBox="0 0 141 69" fill="none" xmlns="http://www.w3.org/2000/svg">
<g filter="url(#filter0_d)">
<rect x="17" y="10" width="113" height="41" rx="10" fill="#58C2A8"/>
<path d="M60.3287 36.098C59.6754 36.098 59.0874 35.986 58.5647 35.762C58.0421 35.5287 57.6314 35.202 57.3327 34.782C57.0341 34.362 56.8847 33.872 56.8847 33.312H58.5927C58.6301 33.732 58.7934 34.0773 59.0827 34.348C59.3814 34.6187 59.7967 34.754 60.3287 34.754C60.8794 34.754 61.3087 34.6233 61.6167 34.362C61.9247 34.0913 62.0787 33.746 62.0787 33.326C62.0787 32.9993 61.9807 32.7333 61.7847 32.528C61.5981 32.3227 61.3601 32.164 61.0707 32.052C60.7907 31.94 60.3987 31.8187 59.8947 31.688C59.2601 31.52 58.7421 31.352 58.3407 31.184C57.9487 31.0067 57.6127 30.736 57.3327 30.372C57.0527 30.008 56.9127 29.5227 56.9127 28.916C56.9127 28.356 57.0527 27.866 57.3327 27.446C57.6127 27.026 58.0047 26.704 58.5087 26.48C59.0127 26.256 59.5961 26.144 60.2587 26.144C61.2014 26.144 61.9714 26.382 62.5687 26.858C63.1754 27.3247 63.5114 27.9687 63.5767 28.79H61.8127C61.7847 28.4353 61.6167 28.132 61.3087 27.88C61.0007 27.628 60.5947 27.502 60.0907 27.502C59.6334 27.502 59.2601 27.6187 58.9707 27.852C58.6814 28.0853 58.5367 28.4213 58.5367 28.86C58.5367 29.1587 58.6254 29.406 58.8027 29.602C58.9894 29.7887 59.2227 29.938 59.5027 30.05C59.7827 30.162 60.1654 30.2833 60.6507 30.414C61.2947 30.5913 61.8174 30.7687 62.2187 30.946C62.6294 31.1233 62.9747 31.3987 63.2547 31.772C63.5441 32.136 63.6887 32.626 63.6887 33.242C63.6887 33.7367 63.5534 34.2033 63.2827 34.642C63.0214 35.0807 62.6341 35.4353 62.1207 35.706C61.6167 35.9673 61.0194 36.098 60.3287 36.098ZM65.11 32.108C65.11 31.3333 65.2686 30.6473 65.586 30.05C65.9126 29.4527 66.3513 28.9907 66.902 28.664C67.462 28.328 68.078 28.16 68.75 28.16C69.3566 28.16 69.884 28.2813 70.332 28.524C70.7893 28.7573 71.1533 29.0513 71.424 29.406V28.286H73.034V36H71.424V34.852C71.1533 35.216 70.7846 35.5193 70.318 35.762C69.8513 36.0047 69.3193 36.126 68.722 36.126C68.0593 36.126 67.4526 35.958 66.902 35.622C66.3513 35.2767 65.9126 34.8007 65.586 34.194C65.2686 33.578 65.11 32.8827 65.11 32.108ZM71.424 32.136C71.424 31.604 71.312 31.142 71.088 30.75C70.8733 30.358 70.5886 30.0593 70.234 29.854C69.8793 29.6487 69.4966 29.546 69.086 29.546C68.6753 29.546 68.2926 29.6487 67.938 29.854C67.5833 30.05 67.294 30.344 67.07 30.736C66.8553 31.1187 66.748 31.576 66.748 32.108C66.748 32.64 66.8553 33.1067 67.07 33.508C67.294 33.9093 67.5833 34.2173 67.938 34.432C68.302 34.6373 68.6846 34.74 69.086 34.74C69.4966 34.74 69.8793 34.6373 70.234 34.432C70.5886 34.2267 70.8733 33.928 71.088 33.536C71.312 33.1347 71.424 32.668 71.424 32.136ZM78.1822 34.572L80.3662 28.286H82.0602L79.1202 36H77.2162L74.2902 28.286H75.9982L78.1822 34.572ZM90.4066 31.954C90.4066 32.2433 90.388 32.5047 90.3506 32.738H84.4566C84.5033 33.354 84.732 33.8487 85.1426 34.222C85.5533 34.5953 86.0573 34.782 86.6546 34.782C87.5133 34.782 88.12 34.4227 88.4746 33.704H90.1966C89.9633 34.4133 89.5386 34.9967 88.9226 35.454C88.316 35.902 87.56 36.126 86.6546 36.126C85.9173 36.126 85.2546 35.9627 84.6666 35.636C84.088 35.3 83.6306 34.8333 83.2946 34.236C82.968 33.6293 82.8046 32.9293 82.8046 32.136C82.8046 31.3427 82.9633 30.6473 83.2806 30.05C83.6073 29.4433 84.06 28.9767 84.6386 28.65C85.2266 28.3233 85.8986 28.16 86.6546 28.16C87.3826 28.16 88.0313 28.3187 88.6006 28.636C89.17 28.9533 89.6133 29.4013 89.9306 29.98C90.248 30.5493 90.4066 31.2073 90.4066 31.954ZM88.7406 31.45C88.7313 30.862 88.5213 30.3907 88.1106 30.036C87.7 29.6813 87.1913 29.504 86.5846 29.504C86.034 29.504 85.5626 29.6813 85.1706 30.036C84.7786 30.3813 84.5453 30.8527 84.4706 31.45H88.7406Z" fill="white"/>
</g>
<defs>
<filter id="filter0_d" x="0" y="0" width="141" height="69" filterUnits="userSpaceOnUse" color-interpolation-filters="sRGB">
<feFlood flood-opacity="0" result="BackgroundImageFix"/>
<feColorMatrix in="SourceAlpha" type="matrix" values="0 0 0 0 0 0 0 0 0 0 0 0 0 0 0 0 0 0 127 0"/>
<feOffset dx="-3" dy="4"/>
<feGaussianBlur stdDeviation="7"/>
<feColorMatrix type="matrix" values="0 0 0 0 0 0 0 0 0 0 0 0 0 0 0 0 0 0 0.15 0"/>
<feBlend mode="normal" in2="BackgroundImageFix" result="effect1_dropShadow"/>
<feBlend mode="normal" in="SourceGraphic" in2="effect1_dropShadow" result="shape"/>
</filter>
</defs>
</svg>
