<svg width="113" height="41" viewBox="0 0 113 41" fill="none" xmlns="http://www.w3.org/2000/svg">
<rect width="113" height="41" rx="10" fill="#46B0C6"/>
<path d="M34.3487 26.098C33.7047 26.098 33.1261 25.986 32.6127 25.762C32.1087 25.5287 31.7121 25.2113 31.4227 24.81C31.1334 24.3993 30.9841 23.928 30.9747 23.396H32.3327C32.3794 23.8533 32.5661 24.2407 32.8927 24.558C33.2287 24.866 33.7141 25.02 34.3487 25.02C34.9554 25.02 35.4314 24.8707 35.7767 24.572C36.1314 24.264 36.3087 23.872 36.3087 23.396C36.3087 23.0227 36.2061 22.7193 36.0007 22.486C35.7954 22.2527 35.5387 22.0753 35.2307 21.954C34.9227 21.8327 34.5074 21.702 33.9847 21.562C33.3407 21.394 32.8227 21.226 32.4307 21.058C32.0481 20.89 31.7167 20.6287 31.4367 20.274C31.1661 19.91 31.0307 19.4247 31.0307 18.818C31.0307 18.286 31.1661 17.8147 31.4367 17.404C31.7074 16.9933 32.0854 16.676 32.5707 16.452C33.0654 16.228 33.6301 16.116 34.2647 16.116C35.1794 16.116 35.9261 16.3447 36.5047 16.802C37.0927 17.2593 37.4241 17.866 37.4987 18.622H36.0987C36.0521 18.2487 35.8561 17.922 35.5107 17.642C35.1654 17.3527 34.7081 17.208 34.1387 17.208C33.6067 17.208 33.1727 17.348 32.8367 17.628C32.5007 17.8987 32.3327 18.2813 32.3327 18.776C32.3327 19.1307 32.4307 19.42 32.6267 19.644C32.8321 19.868 33.0794 20.0407 33.3687 20.162C33.6674 20.274 34.0827 20.4047 34.6147 20.554C35.2587 20.7313 35.7767 20.9087 36.1687 21.086C36.5607 21.254 36.8967 21.52 37.1767 21.884C37.4567 22.2387 37.5967 22.724 37.5967 23.34C37.5967 23.816 37.4707 24.264 37.2187 24.684C36.9667 25.104 36.5934 25.4447 36.0987 25.706C35.6041 25.9673 35.0207 26.098 34.3487 26.098ZM40.1995 17.082C39.9568 17.082 39.7515 16.998 39.5835 16.83C39.4155 16.662 39.3315 16.4567 39.3315 16.214C39.3315 15.9713 39.4155 15.766 39.5835 15.598C39.7515 15.43 39.9568 15.346 40.1995 15.346C40.4328 15.346 40.6288 15.43 40.7875 15.598C40.9555 15.766 41.0395 15.9713 41.0395 16.214C41.0395 16.4567 40.9555 16.662 40.7875 16.83C40.6288 16.998 40.4328 17.082 40.1995 17.082ZM40.8155 18.328V26H39.5415V18.328H40.8155ZM46.2208 18.202C46.8835 18.202 47.4622 18.3467 47.9568 18.636C48.4608 18.9253 48.8342 19.2893 49.0768 19.728V18.328H50.3648V26.168C50.3648 26.868 50.2155 27.4887 49.9168 28.03C49.6182 28.5807 49.1888 29.01 48.6288 29.318C48.0782 29.626 47.4342 29.78 46.6968 29.78C45.6888 29.78 44.8488 29.542 44.1768 29.066C43.5048 28.59 43.1082 27.9413 42.9868 27.12H44.2468C44.3868 27.5867 44.6762 27.96 45.1148 28.24C45.5535 28.5293 46.0808 28.674 46.6968 28.674C47.3968 28.674 47.9662 28.4547 48.4048 28.016C48.8528 27.5773 49.0768 26.9613 49.0768 26.168V24.558C48.8248 25.006 48.4515 25.3793 47.9568 25.678C47.4622 25.9767 46.8835 26.126 46.2208 26.126C45.5395 26.126 44.9188 25.958 44.3588 25.622C43.8082 25.286 43.3742 24.8147 43.0568 24.208C42.7395 23.6013 42.5808 22.9107 42.5808 22.136C42.5808 21.352 42.7395 20.666 43.0568 20.078C43.3742 19.4807 43.8082 19.0187 44.3588 18.692C44.9188 18.3653 45.5395 18.202 46.2208 18.202ZM49.0768 22.15C49.0768 21.5713 48.9602 21.0673 48.7268 20.638C48.4935 20.2087 48.1762 19.882 47.7748 19.658C47.3828 19.4247 46.9488 19.308 46.4728 19.308C45.9968 19.308 45.5628 19.42 45.1708 19.644C44.7788 19.868 44.4662 20.1947 44.2328 20.624C43.9995 21.0533 43.8828 21.5573 43.8828 22.136C43.8828 22.724 43.9995 23.2373 44.2328 23.676C44.4662 24.1053 44.7788 24.4367 45.1708 24.67C45.5628 24.894 45.9968 25.006 46.4728 25.006C46.9488 25.006 47.3828 24.894 47.7748 24.67C48.1762 24.4367 48.4935 24.1053 48.7268 23.676C48.9602 23.2373 49.0768 22.7287 49.0768 22.15ZM56.3258 18.188C57.2591 18.188 58.0151 18.4727 58.5938 19.042C59.1724 19.602 59.4618 20.414 59.4618 21.478V26H58.2018V21.66C58.2018 20.8947 58.0104 20.3113 57.6278 19.91C57.2451 19.4993 56.7224 19.294 56.0598 19.294C55.3878 19.294 54.8511 19.504 54.4498 19.924C54.0578 20.344 53.8618 20.9553 53.8618 21.758V26H52.5878V18.328H53.8618V19.42C54.1138 19.028 54.4544 18.7247 54.8838 18.51C55.3224 18.2953 55.8031 18.188 56.3258 18.188ZM72.2193 18.328V26H70.9453V24.866C70.7026 25.258 70.3619 25.566 69.9233 25.79C69.4939 26.0047 69.0179 26.112 68.4953 26.112C67.8979 26.112 67.3613 25.9907 66.8853 25.748C66.4093 25.496 66.0313 25.1227 65.7513 24.628C65.4806 24.1333 65.3453 23.5313 65.3453 22.822V18.328H66.6053V22.654C66.6053 23.41 66.7966 23.9933 67.1793 24.404C67.5619 24.8053 68.0846 25.006 68.7473 25.006C69.4286 25.006 69.9653 24.796 70.3573 24.376C70.7493 23.956 70.9453 23.3447 70.9453 22.542V18.328H72.2193ZM75.7143 19.742C75.9663 19.3033 76.3397 18.9393 76.8343 18.65C77.3383 18.3513 77.9217 18.202 78.5843 18.202C79.2657 18.202 79.8817 18.3653 80.4323 18.692C80.9923 19.0187 81.431 19.4807 81.7483 20.078C82.0657 20.666 82.2243 21.352 82.2243 22.136C82.2243 22.9107 82.0657 23.6013 81.7483 24.208C81.431 24.8147 80.9923 25.286 80.4323 25.622C79.8817 25.958 79.2657 26.126 78.5843 26.126C77.931 26.126 77.3523 25.9813 76.8483 25.692C76.3537 25.3933 75.9757 25.0247 75.7143 24.586V29.64H74.4403V18.328H75.7143V19.742ZM80.9223 22.136C80.9223 21.5573 80.8057 21.0533 80.5723 20.624C80.339 20.1947 80.0217 19.868 79.6203 19.644C79.2283 19.42 78.7943 19.308 78.3183 19.308C77.8517 19.308 77.4177 19.4247 77.0163 19.658C76.6243 19.882 76.307 20.2133 76.0643 20.652C75.831 21.0813 75.7143 21.5807 75.7143 22.15C75.7143 22.7287 75.831 23.2373 76.0643 23.676C76.307 24.1053 76.6243 24.4367 77.0163 24.67C77.4177 24.894 77.8517 25.006 78.3183 25.006C78.7943 25.006 79.2283 24.894 79.6203 24.67C80.0217 24.4367 80.339 24.1053 80.5723 23.676C80.8057 23.2373 80.9223 22.724 80.9223 22.136Z" fill="white"/>
</svg>
