<svg width="24" height="24" viewBox="0 0 24 24" fill="none" xmlns="http://www.w3.org/2000/svg">
<path d="M5 13.8299C4.99949 13.6805 5.03246 13.5329 5.09649 13.3979C5.16052 13.263 5.25398 13.144 5.37 13.0499L11.37 8.21992C11.5489 8.07284 11.7734 7.99243 12.005 7.99243C12.2366 7.99243 12.4611 8.07284 12.64 8.21992L18.64 13.2199C18.8442 13.3897 18.9726 13.6336 18.997 13.898C19.0214 14.1624 18.9397 14.4257 18.77 14.6299C18.6003 14.8341 18.3563 14.9626 18.0919 14.9869C17.8275 15.0113 17.5642 14.9297 17.36 14.7599L12 10.2899L6.64 14.6099C6.49321 14.7322 6.31447 14.8099 6.12492 14.8338C5.93538 14.8576 5.74295 14.8267 5.57042 14.7447C5.3979 14.6626 5.25249 14.5328 5.15139 14.3707C5.0503 14.2086 4.99777 14.021 5 13.8299Z" fill="white"/>
</svg>
