<svg width="141" height="69" viewBox="0 0 141 69" fill="none" xmlns="http://www.w3.org/2000/svg">
<g filter="url(#filter0_d)">
<rect x="17" y="10" width="113" height="41" rx="10" fill="#58C2A8"/>
<path d="M53.7257 32.108C53.7257 31.3333 53.8843 30.6473 54.2017 30.05C54.5283 29.4527 54.967 28.9907 55.5177 28.664C56.0777 28.328 56.6937 28.16 57.3657 28.16C57.9723 28.16 58.4997 28.2813 58.9477 28.524C59.405 28.7573 59.769 29.0513 60.0397 29.406V28.286H61.6497V36H60.0397V34.852C59.769 35.216 59.4003 35.5193 58.9337 35.762C58.467 36.0047 57.935 36.126 57.3377 36.126C56.675 36.126 56.0683 35.958 55.5177 35.622C54.967 35.2767 54.5283 34.8007 54.2017 34.194C53.8843 33.578 53.7257 32.8827 53.7257 32.108ZM60.0397 32.136C60.0397 31.604 59.9277 31.142 59.7037 30.75C59.489 30.358 59.2043 30.0593 58.8497 29.854C58.495 29.6487 58.1123 29.546 57.7017 29.546C57.291 29.546 56.9083 29.6487 56.5537 29.854C56.199 30.05 55.9097 30.344 55.6857 30.736C55.471 31.1187 55.3637 31.576 55.3637 32.108C55.3637 32.64 55.471 33.1067 55.6857 33.508C55.9097 33.9093 56.199 34.2173 56.5537 34.432C56.9177 34.6373 57.3003 34.74 57.7017 34.74C58.1123 34.74 58.495 34.6373 58.8497 34.432C59.2043 34.2267 59.489 33.928 59.7037 33.536C59.9277 33.1347 60.0397 32.668 60.0397 32.136ZM65.4119 29.42C65.6826 29.0653 66.0513 28.7667 66.5179 28.524C66.9846 28.2813 67.5119 28.16 68.0999 28.16C68.7719 28.16 69.3833 28.328 69.9339 28.664C70.4939 28.9907 70.9326 29.4527 71.2499 30.05C71.5673 30.6473 71.7259 31.3333 71.7259 32.108C71.7259 32.8827 71.5673 33.578 71.2499 34.194C70.9326 34.8007 70.4939 35.2767 69.9339 35.622C69.3833 35.958 68.7719 36.126 68.0999 36.126C67.5119 36.126 66.9893 36.0093 66.5319 35.776C66.0746 35.5333 65.7013 35.2347 65.4119 34.88V39.668H63.8159V28.286H65.4119V29.42ZM70.1019 32.108C70.1019 31.576 69.9899 31.1187 69.7659 30.736C69.5513 30.344 69.2619 30.05 68.8979 29.854C68.5433 29.6487 68.1606 29.546 67.7499 29.546C67.3486 29.546 66.9659 29.6487 66.6019 29.854C66.2473 30.0593 65.9579 30.358 65.7339 30.75C65.5193 31.142 65.4119 31.604 65.4119 32.136C65.4119 32.668 65.5193 33.1347 65.7339 33.536C65.9579 33.928 66.2473 34.2267 66.6019 34.432C66.9659 34.6373 67.3486 34.74 67.7499 34.74C68.1606 34.74 68.5433 34.6373 68.8979 34.432C69.2619 34.2173 69.5513 33.9093 69.7659 33.508C69.9899 33.1067 70.1019 32.64 70.1019 32.108ZM74.9702 29.42C75.2409 29.0653 75.6096 28.7667 76.0762 28.524C76.5429 28.2813 77.0702 28.16 77.6582 28.16C78.3302 28.16 78.9416 28.328 79.4922 28.664C80.0522 28.9907 80.4909 29.4527 80.8082 30.05C81.1256 30.6473 81.2842 31.3333 81.2842 32.108C81.2842 32.8827 81.1256 33.578 80.8082 34.194C80.4909 34.8007 80.0522 35.2767 79.4922 35.622C78.9416 35.958 78.3302 36.126 77.6582 36.126C77.0702 36.126 76.5476 36.0093 76.0902 35.776C75.6329 35.5333 75.2596 35.2347 74.9702 34.88V39.668H73.3742V28.286H74.9702V29.42ZM79.6602 32.108C79.6602 31.576 79.5482 31.1187 79.3242 30.736C79.1096 30.344 78.8202 30.05 78.4562 29.854C78.1016 29.6487 77.7189 29.546 77.3082 29.546C76.9069 29.546 76.5242 29.6487 76.1602 29.854C75.8056 30.0593 75.5162 30.358 75.2922 30.75C75.0776 31.142 74.9702 31.604 74.9702 32.136C74.9702 32.668 75.0776 33.1347 75.2922 33.536C75.5162 33.928 75.8056 34.2267 76.1602 34.432C76.5242 34.6373 76.9069 34.74 77.3082 34.74C77.7189 34.74 78.1016 34.6373 78.4562 34.432C78.8202 34.2173 79.1096 33.9093 79.3242 33.508C79.5482 33.1067 79.6602 32.64 79.6602 32.108ZM84.5285 25.64V36H82.9325V25.64H84.5285ZM93.6379 28.286L88.9059 39.626H87.2539L88.8219 35.874L85.7839 28.286H87.5619L89.7319 34.166L91.9859 28.286H93.6379Z" fill="white"/>
</g>
<defs>
<filter id="filter0_d" x="0" y="0" width="141" height="69" filterUnits="userSpaceOnUse" color-interpolation-filters="sRGB">
<feFlood flood-opacity="0" result="BackgroundImageFix"/>
<feColorMatrix in="SourceAlpha" type="matrix" values="0 0 0 0 0 0 0 0 0 0 0 0 0 0 0 0 0 0 127 0"/>
<feOffset dx="-3" dy="4"/>
<feGaussianBlur stdDeviation="7"/>
<feColorMatrix type="matrix" values="0 0 0 0 0 0 0 0 0 0 0 0 0 0 0 0 0 0 0.15 0"/>
<feBlend mode="normal" in2="BackgroundImageFix" result="effect1_dropShadow"/>
<feBlend mode="normal" in="SourceGraphic" in2="effect1_dropShadow" result="shape"/>
</filter>
</defs>
</svg>
