<svg width="265" height="69" viewBox="0 0 265 69" fill="none" xmlns="http://www.w3.org/2000/svg">
<g filter="url(#filter0_d)">
<rect x="17" y="10" width="237" height="41" rx="10" fill="#0391A7"/>
</g>
<path d="M77.602 30.114C77.602 29.162 77.8167 28.308 78.246 27.552C78.6753 26.7867 79.2587 26.1893 79.996 25.76C80.7427 25.3307 81.5687 25.116 82.474 25.116C83.538 25.116 84.4667 25.3727 85.26 25.886C86.0533 26.3993 86.632 27.1273 86.996 28.07H85.47C85.1993 27.482 84.8073 27.0293 84.294 26.712C83.79 26.3947 83.1833 26.236 82.474 26.236C81.7927 26.236 81.1813 26.3947 80.64 26.712C80.0987 27.0293 79.674 27.482 79.366 28.07C79.058 28.6487 78.904 29.33 78.904 30.114C78.904 30.8887 79.058 31.57 79.366 32.158C79.674 32.7367 80.0987 33.1847 80.64 33.502C81.1813 33.8193 81.7927 33.978 82.474 33.978C83.1833 33.978 83.79 33.824 84.294 33.516C84.8073 33.1987 85.1993 32.746 85.47 32.158H86.996C86.632 33.0913 86.0533 33.8147 85.26 34.328C84.4667 34.832 83.538 35.084 82.474 35.084C81.5687 35.084 80.7427 34.874 79.996 34.454C79.2587 34.0247 78.6753 33.432 78.246 32.676C77.8167 31.92 77.602 31.066 77.602 30.114ZM92.3085 35.126C91.5898 35.126 90.9365 34.9627 90.3485 34.636C89.7698 34.3093 89.3125 33.8473 88.9765 33.25C88.6498 32.6433 88.4865 31.9433 88.4865 31.15C88.4865 30.366 88.6545 29.6753 88.9905 29.078C89.3358 28.4713 89.8025 28.0093 90.3905 27.692C90.9785 27.3653 91.6365 27.202 92.3645 27.202C93.0925 27.202 93.7505 27.3653 94.3385 27.692C94.9265 28.0093 95.3885 28.4667 95.7245 29.064C96.0698 29.6613 96.2425 30.3567 96.2425 31.15C96.2425 31.9433 96.0651 32.6433 95.7105 33.25C95.3651 33.8473 94.8938 34.3093 94.2965 34.636C93.6991 34.9627 93.0365 35.126 92.3085 35.126ZM92.3085 34.006C92.7658 34.006 93.1951 33.8987 93.5965 33.684C93.9978 33.4693 94.3198 33.1473 94.5625 32.718C94.8145 32.2887 94.9405 31.766 94.9405 31.15C94.9405 30.534 94.8191 30.0113 94.5765 29.582C94.3338 29.1527 94.0165 28.8353 93.6245 28.63C93.2325 28.4153 92.8078 28.308 92.3505 28.308C91.8838 28.308 91.4545 28.4153 91.0625 28.63C90.6798 28.8353 90.3718 29.1527 90.1385 29.582C89.9051 30.0113 89.7885 30.534 89.7885 31.15C89.7885 31.7753 89.9005 32.3027 90.1245 32.732C90.3578 33.1613 90.6658 33.4833 91.0485 33.698C91.4311 33.9033 91.8511 34.006 92.3085 34.006ZM101.726 27.188C102.659 27.188 103.415 27.4727 103.994 28.042C104.572 28.602 104.862 29.414 104.862 30.478V35H103.602V30.66C103.602 29.8947 103.41 29.3113 103.028 28.91C102.645 28.4993 102.122 28.294 101.46 28.294C100.788 28.294 100.251 28.504 99.8495 28.924C99.4575 29.344 99.2615 29.9553 99.2615 30.758V35H97.9875V27.328H99.2615V28.42C99.5135 28.028 99.8542 27.7247 100.284 27.51C100.722 27.2953 101.203 27.188 101.726 27.188ZM108.567 28.378V32.9C108.567 33.2733 108.646 33.5393 108.805 33.698C108.963 33.8473 109.239 33.922 109.631 33.922H110.569V35H109.421C108.711 35 108.179 34.8367 107.825 34.51C107.47 34.1833 107.293 33.6467 107.293 32.9V28.378H106.299V27.328H107.293V25.396H108.567V27.328H110.569V28.378H108.567ZM112.84 26.082C112.598 26.082 112.392 25.998 112.224 25.83C112.056 25.662 111.972 25.4567 111.972 25.214C111.972 24.9713 112.056 24.766 112.224 24.598C112.392 24.43 112.598 24.346 112.84 24.346C113.074 24.346 113.27 24.43 113.428 24.598C113.596 24.766 113.68 24.9713 113.68 25.214C113.68 25.4567 113.596 25.662 113.428 25.83C113.27 25.998 113.074 26.082 112.84 26.082ZM113.456 27.328V35H112.182V27.328H113.456ZM119.436 27.188C120.369 27.188 121.125 27.4727 121.704 28.042C122.282 28.602 122.572 29.414 122.572 30.478V35H121.312V30.66C121.312 29.8947 121.12 29.3113 120.738 28.91C120.355 28.4993 119.832 28.294 119.17 28.294C118.498 28.294 117.961 28.504 117.56 28.924C117.168 29.344 116.972 29.9553 116.972 30.758V35H115.698V27.328H116.972V28.42C117.224 28.028 117.564 27.7247 117.994 27.51C118.432 27.2953 118.913 27.188 119.436 27.188ZM131.527 27.328V35H130.253V33.866C130.01 34.258 129.669 34.566 129.231 34.79C128.801 35.0047 128.325 35.112 127.803 35.112C127.205 35.112 126.669 34.9907 126.193 34.748C125.717 34.496 125.339 34.1227 125.059 33.628C124.788 33.1333 124.653 32.5313 124.653 31.822V27.328H125.913V31.654C125.913 32.41 126.104 32.9933 126.487 33.404C126.869 33.8053 127.392 34.006 128.055 34.006C128.736 34.006 129.273 33.796 129.665 33.376C130.057 32.956 130.253 32.3447 130.253 31.542V27.328H131.527ZM140.748 30.87C140.748 31.1127 140.734 31.3693 140.706 31.64H134.574C134.62 32.396 134.877 32.9887 135.344 33.418C135.82 33.838 136.394 34.048 137.066 34.048C137.616 34.048 138.074 33.922 138.438 33.67C138.811 33.4087 139.072 33.0633 139.222 32.634H140.594C140.388 33.3713 139.978 33.9733 139.362 34.44C138.746 34.8973 137.98 35.126 137.066 35.126C136.338 35.126 135.684 34.9627 135.106 34.636C134.536 34.3093 134.088 33.8473 133.762 33.25C133.435 32.6433 133.272 31.9433 133.272 31.15C133.272 30.3567 133.43 29.6613 133.748 29.064C134.065 28.4667 134.508 28.0093 135.078 27.692C135.656 27.3653 136.319 27.202 137.066 27.202C137.794 27.202 138.438 27.3607 138.998 27.678C139.558 27.9953 139.987 28.434 140.286 28.994C140.594 29.5447 140.748 30.17 140.748 30.87ZM139.432 30.604C139.432 30.1187 139.324 29.7033 139.11 29.358C138.895 29.0033 138.601 28.7373 138.228 28.56C137.864 28.3733 137.458 28.28 137.01 28.28C136.366 28.28 135.815 28.4853 135.358 28.896C134.91 29.3067 134.653 29.876 134.588 30.604H139.432ZM156.522 27.328L154.128 35H152.812L150.964 28.91L149.116 35H147.8L145.392 27.328H146.694L148.458 33.768L150.362 27.328H151.664L153.526 33.782L155.262 27.328H156.522ZM158.514 26.082C158.271 26.082 158.066 25.998 157.898 25.83C157.73 25.662 157.646 25.4567 157.646 25.214C157.646 24.9713 157.73 24.766 157.898 24.598C158.066 24.43 158.271 24.346 158.514 24.346C158.747 24.346 158.943 24.43 159.102 24.598C159.27 24.766 159.354 24.9713 159.354 25.214C159.354 25.4567 159.27 25.662 159.102 25.83C158.943 25.998 158.747 26.082 158.514 26.082ZM159.13 27.328V35H157.856V27.328H159.13ZM162.925 28.378V32.9C162.925 33.2733 163.005 33.5393 163.163 33.698C163.322 33.8473 163.597 33.922 163.989 33.922H164.927V35H163.779C163.07 35 162.538 34.8367 162.183 34.51C161.829 34.1833 161.651 33.6467 161.651 32.9V28.378H160.657V27.328H161.651V25.396H162.925V27.328H164.927V28.378H162.925ZM170.349 27.188C170.928 27.188 171.45 27.314 171.917 27.566C172.384 27.8087 172.748 28.1773 173.009 28.672C173.28 29.1667 173.415 29.7687 173.415 30.478V35H172.155V30.66C172.155 29.8947 171.964 29.3113 171.581 28.91C171.198 28.4993 170.676 28.294 170.013 28.294C169.341 28.294 168.804 28.504 168.403 28.924C168.011 29.344 167.815 29.9553 167.815 30.758V35H166.541V24.64H167.815V28.42C168.067 28.028 168.412 27.7247 168.851 27.51C169.299 27.2953 169.798 27.188 170.349 27.188ZM186.761 28.07C186.49 27.5007 186.098 27.062 185.585 26.754C185.071 26.4367 184.474 26.278 183.793 26.278C183.111 26.278 182.495 26.4367 181.945 26.754C181.403 27.062 180.974 27.51 180.657 28.098C180.349 28.6767 180.195 29.3487 180.195 30.114C180.195 30.8793 180.349 31.5513 180.657 32.13C180.974 32.7087 181.403 33.1567 181.945 33.474C182.495 33.782 183.111 33.936 183.793 33.936C184.745 33.936 185.529 33.6513 186.145 33.082C186.761 32.5127 187.12 31.7427 187.223 30.772H183.331V29.736H188.581V30.716C188.506 31.5187 188.254 32.256 187.825 32.928C187.395 33.5907 186.831 34.118 186.131 34.51C185.431 34.8927 184.651 35.084 183.793 35.084C182.887 35.084 182.061 34.874 181.315 34.454C180.568 34.0247 179.975 33.432 179.537 32.676C179.107 31.92 178.893 31.066 178.893 30.114C178.893 29.162 179.107 28.308 179.537 27.552C179.975 26.7867 180.568 26.194 181.315 25.774C182.061 25.3447 182.887 25.13 183.793 25.13C184.829 25.13 185.743 25.3867 186.537 25.9C187.339 26.4133 187.923 27.1367 188.287 28.07H186.761ZM193.681 35.126C192.962 35.126 192.309 34.9627 191.721 34.636C191.142 34.3093 190.685 33.8473 190.349 33.25C190.022 32.6433 189.859 31.9433 189.859 31.15C189.859 30.366 190.027 29.6753 190.363 29.078C190.708 28.4713 191.175 28.0093 191.763 27.692C192.351 27.3653 193.009 27.202 193.737 27.202C194.465 27.202 195.123 27.3653 195.711 27.692C196.299 28.0093 196.761 28.4667 197.097 29.064C197.442 29.6613 197.615 30.3567 197.615 31.15C197.615 31.9433 197.438 32.6433 197.083 33.25C196.738 33.8473 196.266 34.3093 195.669 34.636C195.072 34.9627 194.409 35.126 193.681 35.126ZM193.681 34.006C194.138 34.006 194.568 33.8987 194.969 33.684C195.37 33.4693 195.692 33.1473 195.935 32.718C196.187 32.2887 196.313 31.766 196.313 31.15C196.313 30.534 196.192 30.0113 195.949 29.582C195.706 29.1527 195.389 28.8353 194.997 28.63C194.605 28.4153 194.18 28.308 193.723 28.308C193.256 28.308 192.827 28.4153 192.435 28.63C192.052 28.8353 191.744 29.1527 191.511 29.582C191.278 30.0113 191.161 30.534 191.161 31.15C191.161 31.7753 191.273 32.3027 191.497 32.732C191.73 33.1613 192.038 33.4833 192.421 33.698C192.804 33.9033 193.224 34.006 193.681 34.006ZM202.706 35.126C201.987 35.126 201.334 34.9627 200.746 34.636C200.167 34.3093 199.71 33.8473 199.374 33.25C199.047 32.6433 198.884 31.9433 198.884 31.15C198.884 30.366 199.052 29.6753 199.388 29.078C199.733 28.4713 200.2 28.0093 200.788 27.692C201.376 27.3653 202.034 27.202 202.762 27.202C203.49 27.202 204.148 27.3653 204.736 27.692C205.324 28.0093 205.786 28.4667 206.122 29.064C206.467 29.6613 206.64 30.3567 206.64 31.15C206.64 31.9433 206.463 32.6433 206.108 33.25C205.763 33.8473 205.291 34.3093 204.694 34.636C204.097 34.9627 203.434 35.126 202.706 35.126ZM202.706 34.006C203.163 34.006 203.593 33.8987 203.994 33.684C204.395 33.4693 204.717 33.1473 204.96 32.718C205.212 32.2887 205.338 31.766 205.338 31.15C205.338 30.534 205.217 30.0113 204.974 29.582C204.731 29.1527 204.414 28.8353 204.022 28.63C203.63 28.4153 203.205 28.308 202.748 28.308C202.281 28.308 201.852 28.4153 201.46 28.63C201.077 28.8353 200.769 29.1527 200.536 29.582C200.303 30.0113 200.186 30.534 200.186 31.15C200.186 31.7753 200.298 32.3027 200.522 32.732C200.755 33.1613 201.063 33.4833 201.446 33.698C201.829 33.9033 202.249 34.006 202.706 34.006ZM211.549 27.202C212.212 27.202 212.791 27.3467 213.285 27.636C213.789 27.9253 214.163 28.2893 214.405 28.728V27.328H215.693V35.168C215.693 35.868 215.544 36.4887 215.245 37.03C214.947 37.5807 214.517 38.01 213.957 38.318C213.407 38.626 212.763 38.78 212.025 38.78C211.017 38.78 210.177 38.542 209.505 38.066C208.833 37.59 208.437 36.9413 208.315 36.12H209.575C209.715 36.5867 210.005 36.96 210.443 37.24C210.882 37.5293 211.409 37.674 212.025 37.674C212.725 37.674 213.295 37.4547 213.733 37.016C214.181 36.5773 214.405 35.9613 214.405 35.168V33.558C214.153 34.006 213.78 34.3793 213.285 34.678C212.791 34.9767 212.212 35.126 211.549 35.126C210.868 35.126 210.247 34.958 209.687 34.622C209.137 34.286 208.703 33.8147 208.385 33.208C208.068 32.6013 207.909 31.9107 207.909 31.136C207.909 30.352 208.068 29.666 208.385 29.078C208.703 28.4807 209.137 28.0187 209.687 27.692C210.247 27.3653 210.868 27.202 211.549 27.202ZM214.405 31.15C214.405 30.5713 214.289 30.0673 214.055 29.638C213.822 29.2087 213.505 28.882 213.103 28.658C212.711 28.4247 212.277 28.308 211.801 28.308C211.325 28.308 210.891 28.42 210.499 28.644C210.107 28.868 209.795 29.1947 209.561 29.624C209.328 30.0533 209.211 30.5573 209.211 31.136C209.211 31.724 209.328 32.2373 209.561 32.676C209.795 33.1053 210.107 33.4367 210.499 33.67C210.891 33.894 211.325 34.006 211.801 34.006C212.277 34.006 212.711 33.894 213.103 33.67C213.505 33.4367 213.822 33.1053 214.055 32.676C214.289 32.2373 214.405 31.7287 214.405 31.15ZM219.19 24.64V35H217.916V24.64H219.19ZM228.431 30.87C228.431 31.1127 228.417 31.3693 228.389 31.64H222.257C222.304 32.396 222.561 32.9887 223.027 33.418C223.503 33.838 224.077 34.048 224.749 34.048C225.3 34.048 225.757 33.922 226.121 33.67C226.495 33.4087 226.756 33.0633 226.905 32.634H228.277C228.072 33.3713 227.661 33.9733 227.045 34.44C226.429 34.8973 225.664 35.126 224.749 35.126C224.021 35.126 223.368 34.9627 222.789 34.636C222.22 34.3093 221.772 33.8473 221.445 33.25C221.119 32.6433 220.955 31.9433 220.955 31.15C220.955 30.3567 221.114 29.6613 221.431 29.064C221.749 28.4667 222.192 28.0093 222.761 27.692C223.34 27.3653 224.003 27.202 224.749 27.202C225.477 27.202 226.121 27.3607 226.681 27.678C227.241 27.9953 227.671 28.434 227.969 28.994C228.277 29.5447 228.431 30.17 228.431 30.87ZM227.115 30.604C227.115 30.1187 227.008 29.7033 226.793 29.358C226.579 29.0033 226.285 28.7373 225.911 28.56C225.547 28.3733 225.141 28.28 224.693 28.28C224.049 28.28 223.499 28.4853 223.041 28.896C222.593 29.3067 222.337 29.876 222.271 30.604H227.115Z" fill="white"/>
<path d="M59.9144 29.5004C60.0298 30.1184 60.0926 30.7645 60.0926 31.4388C60.0926 36.7128 56.5628 40.463 51.2315 40.463C50.0191 40.4634 48.8185 40.2249 47.6983 39.7611C46.5781 39.2973 45.5603 38.6173 44.703 37.76C43.8457 36.9027 43.1658 35.8849 42.702 34.7647C42.2382 33.6445 41.9996 32.4439 42 31.2315C41.9996 30.0191 42.2382 28.8185 42.702 27.6983C43.1658 26.5781 43.8457 25.5603 44.703 24.703C45.5603 23.8457 46.5781 23.1658 47.6983 22.702C48.8185 22.2382 50.0191 21.9996 51.2315 22C53.7241 22 55.807 22.9172 57.4049 24.4063L54.8026 27.0087V27.0021C53.8339 26.0793 52.6044 25.6058 51.2315 25.6058C48.1856 25.6058 45.7099 28.179 45.7099 31.2259C45.7099 34.2718 48.1856 36.8507 51.2315 36.8507C53.9952 36.8507 55.8763 35.2705 56.2627 33.1005H51.2315V29.5004H59.9154H59.9144Z" fill="white"/>
<defs>
<filter id="filter0_d" x="0" y="0" width="265" height="69" filterUnits="userSpaceOnUse" color-interpolation-filters="sRGB">
<feFlood flood-opacity="0" result="BackgroundImageFix"/>
<feColorMatrix in="SourceAlpha" type="matrix" values="0 0 0 0 0 0 0 0 0 0 0 0 0 0 0 0 0 0 127 0"/>
<feOffset dx="-3" dy="4"/>
<feGaussianBlur stdDeviation="7"/>
<feColorMatrix type="matrix" values="0 0 0 0 0 0 0 0 0 0 0 0 0 0 0 0 0 0 0.15 0"/>
<feBlend mode="normal" in2="BackgroundImageFix" result="effect1_dropShadow"/>
<feBlend mode="normal" in="SourceGraphic" in2="effect1_dropShadow" result="shape"/>
</filter>
</defs>
</svg>
