<svg width="301" height="41" viewBox="0 0 301 41" fill="none" xmlns="http://www.w3.org/2000/svg">
<rect width="301" height="41" rx="10" fill="#49A8B2"/>
<path d="M95.8672 24.712H99.1572V26H94.2712V16.27H95.8672V24.712ZM107.632 21.954C107.632 22.2433 107.613 22.5047 107.576 22.738H101.682C101.729 23.354 101.957 23.8487 102.368 24.222C102.779 24.5953 103.283 24.782 103.88 24.782C104.739 24.782 105.345 24.4227 105.7 23.704H107.422C107.189 24.4133 106.764 24.9967 106.148 25.454C105.541 25.902 104.785 26.126 103.88 26.126C103.143 26.126 102.48 25.9627 101.892 25.636C101.313 25.3 100.856 24.8333 100.52 24.236C100.193 23.6293 100.03 22.9293 100.03 22.136C100.03 21.3427 100.189 20.6473 100.506 20.05C100.833 19.4433 101.285 18.9767 101.864 18.65C102.452 18.3233 103.124 18.16 103.88 18.16C104.608 18.16 105.257 18.3187 105.826 18.636C106.395 18.9533 106.839 19.4013 107.156 19.98C107.473 20.5493 107.632 21.2073 107.632 21.954ZM105.966 21.45C105.957 20.862 105.747 20.3907 105.336 20.036C104.925 19.6813 104.417 19.504 103.81 19.504C103.259 19.504 102.788 19.6813 102.396 20.036C102.004 20.3813 101.771 20.8527 101.696 21.45H105.966ZM111.135 19.588V23.858C111.135 24.1473 111.2 24.3573 111.331 24.488C111.471 24.6093 111.704 24.67 112.031 24.67H113.011V26H111.751C111.032 26 110.481 25.832 110.099 25.496C109.716 25.16 109.525 24.614 109.525 23.858V19.588H108.615V18.286H109.525V16.368H111.135V18.286H113.011V19.588H111.135ZM114.804 16.27H116.54L115.07 19.602H113.95L114.804 16.27ZM120.812 26.126C120.206 26.126 119.66 26.0187 119.174 25.804C118.698 25.58 118.32 25.2813 118.04 24.908C117.76 24.5253 117.611 24.1007 117.592 23.634H119.244C119.272 23.9607 119.426 24.236 119.706 24.46C119.996 24.6747 120.355 24.782 120.784 24.782C121.232 24.782 121.578 24.698 121.82 24.53C122.072 24.3527 122.198 24.1287 122.198 23.858C122.198 23.5687 122.058 23.354 121.778 23.214C121.508 23.074 121.074 22.92 120.476 22.752C119.898 22.5933 119.426 22.4393 119.062 22.29C118.698 22.1407 118.381 21.912 118.11 21.604C117.849 21.296 117.718 20.89 117.718 20.386C117.718 19.9753 117.84 19.602 118.082 19.266C118.325 18.9207 118.67 18.65 119.118 18.454C119.576 18.258 120.098 18.16 120.686 18.16C121.564 18.16 122.268 18.384 122.8 18.832C123.342 19.2707 123.631 19.8727 123.668 20.638H122.072C122.044 20.2927 121.904 20.0173 121.652 19.812C121.4 19.6067 121.06 19.504 120.63 19.504C120.21 19.504 119.888 19.5833 119.664 19.742C119.44 19.9007 119.328 20.1107 119.328 20.372C119.328 20.5773 119.403 20.75 119.552 20.89C119.702 21.03 119.884 21.142 120.098 21.226C120.313 21.3007 120.63 21.3987 121.05 21.52C121.61 21.6693 122.068 21.8233 122.422 21.982C122.786 22.1313 123.099 22.3553 123.36 22.654C123.622 22.9527 123.757 23.3493 123.766 23.844C123.766 24.2827 123.645 24.6747 123.402 25.02C123.16 25.3653 122.814 25.636 122.366 25.832C121.928 26.028 121.41 26.126 120.812 26.126ZM132.375 18.16C132.973 18.16 133.5 18.2813 133.957 18.524C134.424 18.7573 134.788 19.0513 135.049 19.406V18.286H136.659V26.126C136.659 26.8353 136.51 27.4653 136.211 28.016C135.913 28.576 135.479 29.0147 134.909 29.332C134.349 29.6493 133.677 29.808 132.893 29.808C131.848 29.808 130.98 29.5607 130.289 29.066C129.599 28.5807 129.207 27.918 129.113 27.078H130.695C130.817 27.4793 131.073 27.8013 131.465 28.044C131.867 28.296 132.343 28.422 132.893 28.422C133.537 28.422 134.055 28.226 134.447 27.834C134.849 27.442 135.049 26.8727 135.049 26.126V24.838C134.779 25.202 134.41 25.51 133.943 25.762C133.486 26.0047 132.963 26.126 132.375 26.126C131.703 26.126 131.087 25.958 130.527 25.622C129.977 25.2767 129.538 24.8007 129.211 24.194C128.894 23.578 128.735 22.8827 128.735 22.108C128.735 21.3333 128.894 20.6473 129.211 20.05C129.538 19.4527 129.977 18.9907 130.527 18.664C131.087 18.328 131.703 18.16 132.375 18.16ZM135.049 22.136C135.049 21.604 134.937 21.142 134.713 20.75C134.499 20.358 134.214 20.0593 133.859 19.854C133.505 19.6487 133.122 19.546 132.711 19.546C132.301 19.546 131.918 19.6487 131.563 19.854C131.209 20.05 130.919 20.344 130.695 20.736C130.481 21.1187 130.373 21.576 130.373 22.108C130.373 22.64 130.481 23.1067 130.695 23.508C130.919 23.9093 131.209 24.2173 131.563 24.432C131.927 24.6373 132.31 24.74 132.711 24.74C133.122 24.74 133.505 24.6373 133.859 24.432C134.214 24.2267 134.499 23.928 134.713 23.536C134.937 23.1347 135.049 22.668 135.049 22.136ZM145.896 21.954C145.896 22.2433 145.877 22.5047 145.84 22.738H139.946C139.992 23.354 140.221 23.8487 140.632 24.222C141.042 24.5953 141.546 24.782 142.144 24.782C143.002 24.782 143.609 24.4227 143.964 23.704H145.686C145.452 24.4133 145.028 24.9967 144.412 25.454C143.805 25.902 143.049 26.126 142.144 26.126C141.406 26.126 140.744 25.9627 140.156 25.636C139.577 25.3 139.12 24.8333 138.784 24.236C138.457 23.6293 138.294 22.9293 138.294 22.136C138.294 21.3427 138.452 20.6473 138.77 20.05C139.096 19.4433 139.549 18.9767 140.128 18.65C140.716 18.3233 141.388 18.16 142.144 18.16C142.872 18.16 143.52 18.3187 144.09 18.636C144.659 18.9533 145.102 19.4013 145.42 19.98C145.737 20.5493 145.896 21.2073 145.896 21.954ZM144.23 21.45C144.22 20.862 144.01 20.3907 143.6 20.036C143.189 19.6813 142.68 19.504 142.074 19.504C141.523 19.504 141.052 19.6813 140.66 20.036C140.268 20.3813 140.034 20.8527 139.96 21.45H144.23ZM149.398 19.588V23.858C149.398 24.1473 149.464 24.3573 149.594 24.488C149.734 24.6093 149.968 24.67 150.294 24.67H151.274V26H150.014C149.296 26 148.745 25.832 148.362 25.496C147.98 25.16 147.788 24.614 147.788 23.858V19.588H146.878V18.286H147.788V16.368H149.398V18.286H151.274V19.588H149.398ZM159.322 26.126C158.715 26.126 158.169 26.0187 157.684 25.804C157.208 25.58 156.83 25.2813 156.55 24.908C156.27 24.5253 156.121 24.1007 156.102 23.634H157.754C157.782 23.9607 157.936 24.236 158.216 24.46C158.505 24.6747 158.865 24.782 159.294 24.782C159.742 24.782 160.087 24.698 160.33 24.53C160.582 24.3527 160.708 24.1287 160.708 23.858C160.708 23.5687 160.568 23.354 160.288 23.214C160.017 23.074 159.583 22.92 158.986 22.752C158.407 22.5933 157.936 22.4393 157.572 22.29C157.208 22.1407 156.891 21.912 156.62 21.604C156.359 21.296 156.228 20.89 156.228 20.386C156.228 19.9753 156.349 19.602 156.592 19.266C156.835 18.9207 157.18 18.65 157.628 18.454C158.085 18.258 158.608 18.16 159.196 18.16C160.073 18.16 160.778 18.384 161.31 18.832C161.851 19.2707 162.141 19.8727 162.178 20.638H160.582C160.554 20.2927 160.414 20.0173 160.162 19.812C159.91 19.6067 159.569 19.504 159.14 19.504C158.72 19.504 158.398 19.5833 158.174 19.742C157.95 19.9007 157.838 20.1107 157.838 20.372C157.838 20.5773 157.913 20.75 158.062 20.89C158.211 21.03 158.393 21.142 158.608 21.226C158.823 21.3007 159.14 21.3987 159.56 21.52C160.12 21.6693 160.577 21.8233 160.932 21.982C161.296 22.1313 161.609 22.3553 161.87 22.654C162.131 22.9527 162.267 23.3493 162.276 23.844C162.276 24.2827 162.155 24.6747 161.912 25.02C161.669 25.3653 161.324 25.636 160.876 25.832C160.437 26.028 159.919 26.126 159.322 26.126ZM165.933 19.588V23.858C165.933 24.1473 165.998 24.3573 166.129 24.488C166.269 24.6093 166.502 24.67 166.829 24.67H167.809V26H166.549C165.83 26 165.279 25.832 164.897 25.496C164.514 25.16 164.323 24.614 164.323 23.858V19.588H163.413V18.286H164.323V16.368H165.933V18.286H167.809V19.588H165.933ZM168.818 22.108C168.818 21.3333 168.976 20.6473 169.294 20.05C169.62 19.4527 170.059 18.9907 170.61 18.664C171.17 18.328 171.786 18.16 172.458 18.16C173.064 18.16 173.592 18.2813 174.04 18.524C174.497 18.7573 174.861 19.0513 175.132 19.406V18.286H176.742V26H175.132V24.852C174.861 25.216 174.492 25.5193 174.026 25.762C173.559 26.0047 173.027 26.126 172.43 26.126C171.767 26.126 171.16 25.958 170.61 25.622C170.059 25.2767 169.62 24.8007 169.294 24.194C168.976 23.578 168.818 22.8827 168.818 22.108ZM175.132 22.136C175.132 21.604 175.02 21.142 174.796 20.75C174.581 20.358 174.296 20.0593 173.942 19.854C173.587 19.6487 173.204 19.546 172.794 19.546C172.383 19.546 172 19.6487 171.646 19.854C171.291 20.05 171.002 20.344 170.778 20.736C170.563 21.1187 170.456 21.576 170.456 22.108C170.456 22.64 170.563 23.1067 170.778 23.508C171.002 23.9093 171.291 24.2173 171.646 24.432C172.01 24.6373 172.392 24.74 172.794 24.74C173.204 24.74 173.587 24.6373 173.942 24.432C174.296 24.2267 174.581 23.928 174.796 23.536C175.02 23.1347 175.132 22.668 175.132 22.136ZM180.504 19.406C180.737 19.014 181.045 18.7107 181.428 18.496C181.82 18.272 182.282 18.16 182.814 18.16V19.812H182.408C181.782 19.812 181.306 19.9707 180.98 20.288C180.662 20.6053 180.504 21.156 180.504 21.94V26H178.908V18.286H180.504V19.406ZM186.213 19.588V23.858C186.213 24.1473 186.278 24.3573 186.409 24.488C186.549 24.6093 186.782 24.67 187.109 24.67H188.089V26H186.829C186.11 26 185.56 25.832 185.177 25.496C184.794 25.16 184.603 24.614 184.603 23.858V19.588H183.693V18.286H184.603V16.368H186.213V18.286H188.089V19.588H186.213ZM196.7 21.954C196.7 22.2433 196.681 22.5047 196.644 22.738H190.75C190.797 23.354 191.025 23.8487 191.436 24.222C191.847 24.5953 192.351 24.782 192.948 24.782C193.807 24.782 194.413 24.4227 194.768 23.704H196.49C196.257 24.4133 195.832 24.9967 195.216 25.454C194.609 25.902 193.853 26.126 192.948 26.126C192.211 26.126 191.548 25.9627 190.96 25.636C190.381 25.3 189.924 24.8333 189.588 24.236C189.261 23.6293 189.098 22.9293 189.098 22.136C189.098 21.3427 189.257 20.6473 189.574 20.05C189.901 19.4433 190.353 18.9767 190.932 18.65C191.52 18.3233 192.192 18.16 192.948 18.16C193.676 18.16 194.325 18.3187 194.894 18.636C195.463 18.9533 195.907 19.4013 196.224 19.98C196.541 20.5493 196.7 21.2073 196.7 21.954ZM195.034 21.45C195.025 20.862 194.815 20.3907 194.404 20.036C193.993 19.6813 193.485 19.504 192.878 19.504C192.327 19.504 191.856 19.6813 191.464 20.036C191.072 20.3813 190.839 20.8527 190.764 21.45H195.034ZM197.808 22.108C197.808 21.3333 197.967 20.6473 198.284 20.05C198.611 19.4527 199.05 18.9907 199.6 18.664C200.16 18.328 200.781 18.16 201.462 18.16C201.966 18.16 202.461 18.272 202.946 18.496C203.441 18.7107 203.833 19 204.122 19.364V15.64H205.732V26H204.122V24.838C203.861 25.2113 203.497 25.5193 203.03 25.762C202.573 26.0047 202.046 26.126 201.448 26.126C200.776 26.126 200.16 25.958 199.6 25.622C199.05 25.2767 198.611 24.8007 198.284 24.194C197.967 23.578 197.808 22.8827 197.808 22.108ZM204.122 22.136C204.122 21.604 204.01 21.142 203.786 20.75C203.572 20.358 203.287 20.0593 202.932 19.854C202.578 19.6487 202.195 19.546 201.784 19.546C201.374 19.546 200.991 19.6487 200.636 19.854C200.282 20.05 199.992 20.344 199.768 20.736C199.554 21.1187 199.446 21.576 199.446 22.108C199.446 22.64 199.554 23.1067 199.768 23.508C199.992 23.9093 200.282 24.2173 200.636 24.432C201 24.6373 201.383 24.74 201.784 24.74C202.195 24.74 202.578 24.6373 202.932 24.432C203.287 24.2267 203.572 23.928 203.786 23.536C204.01 23.1347 204.122 22.668 204.122 22.136Z" fill="white"/>
</svg>
