<svg width="203" height="69" viewBox="0 0 203 69" fill="none" xmlns="http://www.w3.org/2000/svg">
<g filter="url(#filter0_d)">
<rect x="17" y="10" width="175" height="41" rx="10" fill="#5AA58F"/>
<path d="M81.8209 36.098C81.1769 36.098 80.5982 35.986 80.0849 35.762C79.5809 35.5287 79.1842 35.2113 78.8949 34.81C78.6056 34.3993 78.4562 33.928 78.4469 33.396H79.8049C79.8516 33.8533 80.0382 34.2407 80.3649 34.558C80.7009 34.866 81.1862 35.02 81.8209 35.02C82.4276 35.02 82.9036 34.8707 83.2489 34.572C83.6036 34.264 83.7809 33.872 83.7809 33.396C83.7809 33.0227 83.6782 32.7193 83.4729 32.486C83.2676 32.2527 83.0109 32.0753 82.7029 31.954C82.3949 31.8327 81.9796 31.702 81.4569 31.562C80.8129 31.394 80.2949 31.226 79.9029 31.058C79.5202 30.89 79.1889 30.6287 78.9089 30.274C78.6382 29.91 78.5029 29.4247 78.5029 28.818C78.5029 28.286 78.6382 27.8147 78.9089 27.404C79.1796 26.9933 79.5576 26.676 80.0429 26.452C80.5376 26.228 81.1022 26.116 81.7369 26.116C82.6516 26.116 83.3982 26.3447 83.9769 26.802C84.5649 27.2593 84.8962 27.866 84.9709 28.622H83.5709C83.5242 28.2487 83.3282 27.922 82.9829 27.642C82.6376 27.3527 82.1802 27.208 81.6109 27.208C81.0789 27.208 80.6449 27.348 80.3089 27.628C79.9729 27.8987 79.8049 28.2813 79.8049 28.776C79.8049 29.1307 79.9029 29.42 80.0989 29.644C80.3042 29.868 80.5516 30.0407 80.8409 30.162C81.1396 30.274 81.5549 30.4047 82.0869 30.554C82.7309 30.7313 83.2489 30.9087 83.6409 31.086C84.0329 31.254 84.3689 31.52 84.6489 31.884C84.9289 32.2387 85.0689 32.724 85.0689 33.34C85.0689 33.816 84.9429 34.264 84.6909 34.684C84.4389 35.104 84.0656 35.4447 83.5709 35.706C83.0762 35.9673 82.4929 36.098 81.8209 36.098ZM87.6717 27.082C87.429 27.082 87.2237 26.998 87.0557 26.83C86.8877 26.662 86.8037 26.4567 86.8037 26.214C86.8037 25.9713 86.8877 25.766 87.0557 25.598C87.2237 25.43 87.429 25.346 87.6717 25.346C87.905 25.346 88.101 25.43 88.2597 25.598C88.4277 25.766 88.5117 25.9713 88.5117 26.214C88.5117 26.4567 88.4277 26.662 88.2597 26.83C88.101 26.998 87.905 27.082 87.6717 27.082ZM88.2877 28.328V36H87.0137V28.328H88.2877ZM93.693 28.202C94.3557 28.202 94.9343 28.3467 95.429 28.636C95.933 28.9253 96.3063 29.2893 96.549 29.728V28.328H97.837V36.168C97.837 36.868 97.6877 37.4887 97.389 38.03C97.0903 38.5807 96.661 39.01 96.101 39.318C95.5503 39.626 94.9063 39.78 94.169 39.78C93.161 39.78 92.321 39.542 91.649 39.066C90.977 38.59 90.5803 37.9413 90.459 37.12H91.719C91.859 37.5867 92.1483 37.96 92.587 38.24C93.0257 38.5293 93.553 38.674 94.169 38.674C94.869 38.674 95.4383 38.4547 95.877 38.016C96.325 37.5773 96.549 36.9613 96.549 36.168V34.558C96.297 35.006 95.9237 35.3793 95.429 35.678C94.9343 35.9767 94.3557 36.126 93.693 36.126C93.0117 36.126 92.391 35.958 91.831 35.622C91.2803 35.286 90.8463 34.8147 90.529 34.208C90.2117 33.6013 90.053 32.9107 90.053 32.136C90.053 31.352 90.2117 30.666 90.529 30.078C90.8463 29.4807 91.2803 29.0187 91.831 28.692C92.391 28.3653 93.0117 28.202 93.693 28.202ZM96.549 32.15C96.549 31.5713 96.4323 31.0673 96.199 30.638C95.9657 30.2087 95.6483 29.882 95.247 29.658C94.855 29.4247 94.421 29.308 93.945 29.308C93.469 29.308 93.035 29.42 92.643 29.644C92.251 29.868 91.9383 30.1947 91.705 30.624C91.4717 31.0533 91.355 31.5573 91.355 32.136C91.355 32.724 91.4717 33.2373 91.705 33.676C91.9383 34.1053 92.251 34.4367 92.643 34.67C93.035 34.894 93.469 35.006 93.945 35.006C94.421 35.006 94.855 34.894 95.247 34.67C95.6483 34.4367 95.9657 34.1053 96.199 33.676C96.4323 33.2373 96.549 32.7287 96.549 32.15ZM103.798 28.188C104.731 28.188 105.487 28.4727 106.066 29.042C106.645 29.602 106.934 30.414 106.934 31.478V36H105.674V31.66C105.674 30.8947 105.483 30.3113 105.1 29.91C104.717 29.4993 104.195 29.294 103.532 29.294C102.86 29.294 102.323 29.504 101.922 29.924C101.53 30.344 101.334 30.9553 101.334 31.758V36H100.06V28.328H101.334V29.42C101.586 29.028 101.927 28.7247 102.356 28.51C102.795 28.2953 103.275 28.188 103.798 28.188ZM116.233 36.126C115.515 36.126 114.861 35.9627 114.273 35.636C113.695 35.3093 113.237 34.8473 112.901 34.25C112.575 33.6433 112.411 32.9433 112.411 32.15C112.411 31.366 112.579 30.6753 112.915 30.078C113.261 29.4713 113.727 29.0093 114.315 28.692C114.903 28.3653 115.561 28.202 116.289 28.202C117.017 28.202 117.675 28.3653 118.263 28.692C118.851 29.0093 119.313 29.4667 119.649 30.064C119.995 30.6613 120.167 31.3567 120.167 32.15C120.167 32.9433 119.99 33.6433 119.635 34.25C119.29 34.8473 118.819 35.3093 118.221 35.636C117.624 35.9627 116.961 36.126 116.233 36.126ZM116.233 35.006C116.691 35.006 117.12 34.8987 117.521 34.684C117.923 34.4693 118.245 34.1473 118.487 33.718C118.739 33.2887 118.865 32.766 118.865 32.15C118.865 31.534 118.744 31.0113 118.501 30.582C118.259 30.1527 117.941 29.8353 117.549 29.63C117.157 29.4153 116.733 29.308 116.275 29.308C115.809 29.308 115.379 29.4153 114.987 29.63C114.605 29.8353 114.297 30.1527 114.063 30.582C113.83 31.0113 113.713 31.534 113.713 32.15C113.713 32.7753 113.825 33.3027 114.049 33.732C114.283 34.1613 114.591 34.4833 114.973 34.698C115.356 34.9033 115.776 35.006 116.233 35.006ZM128.717 28.328V36H127.443V34.866C127.2 35.258 126.859 35.566 126.421 35.79C125.991 36.0047 125.515 36.112 124.993 36.112C124.395 36.112 123.859 35.9907 123.383 35.748C122.907 35.496 122.529 35.1227 122.249 34.628C121.978 34.1333 121.843 33.5313 121.843 32.822V28.328H123.103V32.654C123.103 33.41 123.294 33.9933 123.677 34.404C124.059 34.8053 124.582 35.006 125.245 35.006C125.926 35.006 126.463 34.796 126.855 34.376C127.247 33.956 127.443 33.3447 127.443 32.542V28.328H128.717ZM132.492 29.378V33.9C132.492 34.2733 132.571 34.5393 132.73 34.698C132.888 34.8473 133.164 34.922 133.556 34.922H134.494V36H133.346C132.636 36 132.104 35.8367 131.75 35.51C131.395 35.1833 131.218 34.6467 131.218 33.9V29.378H130.224V28.328H131.218V26.396H132.492V28.328H134.494V29.378H132.492Z" fill="white"/>
</g>
<defs>
<filter id="filter0_d" x="0" y="0" width="203" height="69" filterUnits="userSpaceOnUse" color-interpolation-filters="sRGB">
<feFlood flood-opacity="0" result="BackgroundImageFix"/>
<feColorMatrix in="SourceAlpha" type="matrix" values="0 0 0 0 0 0 0 0 0 0 0 0 0 0 0 0 0 0 127 0"/>
<feOffset dx="-3" dy="4"/>
<feGaussianBlur stdDeviation="7"/>
<feColorMatrix type="matrix" values="0 0 0 0 0 0 0 0 0 0 0 0 0 0 0 0 0 0 0.15 0"/>
<feBlend mode="normal" in2="BackgroundImageFix" result="effect1_dropShadow"/>
<feBlend mode="normal" in="SourceGraphic" in2="effect1_dropShadow" result="shape"/>
</filter>
</defs>
</svg>
