<svg width="141" height="69" viewBox="0 0 141 69" fill="none" xmlns="http://www.w3.org/2000/svg">
<g filter="url(#filter0_d)">
<rect x="17" y="10" width="113" height="41" rx="10" fill="#5BB1BE"/>
</g>
<path d="M54.3565 36.098C53.7125 36.098 53.1339 35.986 52.6205 35.762C52.1165 35.5287 51.7199 35.2113 51.4305 34.81C51.1412 34.3993 50.9919 33.928 50.9825 33.396H52.3405C52.3872 33.8533 52.5739 34.2407 52.9005 34.558C53.2365 34.866 53.7219 35.02 54.3565 35.02C54.9632 35.02 55.4392 34.8707 55.7845 34.572C56.1392 34.264 56.3165 33.872 56.3165 33.396C56.3165 33.0227 56.2139 32.7193 56.0085 32.486C55.8032 32.2527 55.5465 32.0753 55.2385 31.954C54.9305 31.8327 54.5152 31.702 53.9925 31.562C53.3485 31.394 52.8305 31.226 52.4385 31.058C52.0559 30.89 51.7245 30.6287 51.4445 30.274C51.1739 29.91 51.0385 29.4247 51.0385 28.818C51.0385 28.286 51.1739 27.8147 51.4445 27.404C51.7152 26.9933 52.0932 26.676 52.5785 26.452C53.0732 26.228 53.6379 26.116 54.2725 26.116C55.1872 26.116 55.9339 26.3447 56.5125 26.802C57.1005 27.2593 57.4319 27.866 57.5065 28.622H56.1065C56.0599 28.2487 55.8639 27.922 55.5185 27.642C55.1732 27.3527 54.7159 27.208 54.1465 27.208C53.6145 27.208 53.1805 27.348 52.8445 27.628C52.5085 27.8987 52.3405 28.2813 52.3405 28.776C52.3405 29.1307 52.4385 29.42 52.6345 29.644C52.8399 29.868 53.0872 30.0407 53.3765 30.162C53.6752 30.274 54.0905 30.4047 54.6225 30.554C55.2665 30.7313 55.7845 30.9087 56.1765 31.086C56.5685 31.254 56.9045 31.52 57.1845 31.884C57.4645 32.2387 57.6045 32.724 57.6045 33.34C57.6045 33.816 57.4785 34.264 57.2265 34.684C56.9745 35.104 56.6012 35.4447 56.1065 35.706C55.6119 35.9673 55.0285 36.098 54.3565 36.098ZM60.2073 27.082C59.9647 27.082 59.7593 26.998 59.5913 26.83C59.4233 26.662 59.3393 26.4567 59.3393 26.214C59.3393 25.9713 59.4233 25.766 59.5913 25.598C59.7593 25.43 59.9647 25.346 60.2073 25.346C60.4407 25.346 60.6367 25.43 60.7953 25.598C60.9633 25.766 61.0473 25.9713 61.0473 26.214C61.0473 26.4567 60.9633 26.662 60.7953 26.83C60.6367 26.998 60.4407 27.082 60.2073 27.082ZM60.8233 28.328V36H59.5493V28.328H60.8233ZM66.2286 28.202C66.8913 28.202 67.47 28.3467 67.9646 28.636C68.4686 28.9253 68.842 29.2893 69.0846 29.728V28.328H70.3726V36.168C70.3726 36.868 70.2233 37.4887 69.9246 38.03C69.626 38.5807 69.1966 39.01 68.6366 39.318C68.086 39.626 67.442 39.78 66.7046 39.78C65.6966 39.78 64.8566 39.542 64.1846 39.066C63.5126 38.59 63.116 37.9413 62.9946 37.12H64.2546C64.3946 37.5867 64.684 37.96 65.1226 38.24C65.5613 38.5293 66.0886 38.674 66.7046 38.674C67.4046 38.674 67.974 38.4547 68.4126 38.016C68.8606 37.5773 69.0846 36.9613 69.0846 36.168V34.558C68.8326 35.006 68.4593 35.3793 67.9646 35.678C67.47 35.9767 66.8913 36.126 66.2286 36.126C65.5473 36.126 64.9266 35.958 64.3666 35.622C63.816 35.286 63.382 34.8147 63.0646 34.208C62.7473 33.6013 62.5886 32.9107 62.5886 32.136C62.5886 31.352 62.7473 30.666 63.0646 30.078C63.382 29.4807 63.816 29.0187 64.3666 28.692C64.9266 28.3653 65.5473 28.202 66.2286 28.202ZM69.0846 32.15C69.0846 31.5713 68.968 31.0673 68.7346 30.638C68.5013 30.2087 68.184 29.882 67.7826 29.658C67.3906 29.4247 66.9566 29.308 66.4806 29.308C66.0046 29.308 65.5706 29.42 65.1786 29.644C64.7866 29.868 64.474 30.1947 64.2406 30.624C64.0073 31.0533 63.8906 31.5573 63.8906 32.136C63.8906 32.724 64.0073 33.2373 64.2406 33.676C64.474 34.1053 64.7866 34.4367 65.1786 34.67C65.5706 34.894 66.0046 35.006 66.4806 35.006C66.9566 35.006 67.3906 34.894 67.7826 34.67C68.184 34.4367 68.5013 34.1053 68.7346 33.676C68.968 33.2373 69.0846 32.7287 69.0846 32.15ZM76.3336 28.188C77.2669 28.188 78.0229 28.4727 78.6016 29.042C79.1802 29.602 79.4696 30.414 79.4696 31.478V36H78.2096V31.66C78.2096 30.8947 78.0182 30.3113 77.6356 29.91C77.2529 29.4993 76.7302 29.294 76.0676 29.294C75.3956 29.294 74.8589 29.504 74.4576 29.924C74.0656 30.344 73.8696 30.9553 73.8696 31.758V36H72.5956V28.328H73.8696V29.42C74.1216 29.028 74.4622 28.7247 74.8916 28.51C75.3302 28.2953 75.8109 28.188 76.3336 28.188ZM86.0811 27.082C85.8384 27.082 85.6331 26.998 85.4651 26.83C85.2971 26.662 85.2131 26.4567 85.2131 26.214C85.2131 25.9713 85.2971 25.766 85.4651 25.598C85.6331 25.43 85.8384 25.346 86.0811 25.346C86.3144 25.346 86.5104 25.43 86.6691 25.598C86.8371 25.766 86.9211 25.9713 86.9211 26.214C86.9211 26.4567 86.8371 26.662 86.6691 26.83C86.5104 26.998 86.3144 27.082 86.0811 27.082ZM86.6971 28.328V36H85.4231V28.328H86.6971ZM92.6764 28.188C93.6097 28.188 94.3657 28.4727 94.9444 29.042C95.5231 29.602 95.8124 30.414 95.8124 31.478V36H94.5524V31.66C94.5524 30.8947 94.3611 30.3113 93.9784 29.91C93.5957 29.4993 93.0731 29.294 92.4104 29.294C91.7384 29.294 91.2017 29.504 90.8004 29.924C90.4084 30.344 90.2124 30.9553 90.2124 31.758V36H88.9384V28.328H90.2124V29.42C90.4644 29.028 90.8051 28.7247 91.2344 28.51C91.6731 28.2953 92.1537 28.188 92.6764 28.188Z" fill="white"/>
<defs>
<filter id="filter0_d" x="0" y="0" width="141" height="69" filterUnits="userSpaceOnUse" color-interpolation-filters="sRGB">
<feFlood flood-opacity="0" result="BackgroundImageFix"/>
<feColorMatrix in="SourceAlpha" type="matrix" values="0 0 0 0 0 0 0 0 0 0 0 0 0 0 0 0 0 0 127 0"/>
<feOffset dx="-3" dy="4"/>
<feGaussianBlur stdDeviation="7"/>
<feColorMatrix type="matrix" values="0 0 0 0 0 0 0 0 0 0 0 0 0 0 0 0 0 0 0.15 0"/>
<feBlend mode="normal" in2="BackgroundImageFix" result="effect1_dropShadow"/>
<feBlend mode="normal" in="SourceGraphic" in2="effect1_dropShadow" result="shape"/>
</filter>
</defs>
</svg>
