<svg width="19" height="19" viewBox="0 0 19 19" fill="none" xmlns="http://www.w3.org/2000/svg">
<path d="M17.9144 7.50037C18.0298 8.11837 18.0926 8.7645 18.0926 9.43877C18.0926 14.7128 14.5628 18.463 9.23152 18.463C8.01911 18.4634 6.81852 18.2249 5.69833 17.7611C4.57815 17.2973 3.56032 16.6173 2.70302 15.76C1.84573 14.9027 1.16575 13.8849 0.701955 12.7647C0.238159 11.6445 -0.000369225 10.4439 4.2899e-07 9.23152C-0.000369225 8.01911 0.238159 6.81852 0.701955 5.69833C1.16575 4.57815 1.84573 3.56032 2.70302 2.70302C3.56032 1.84573 4.57815 1.16575 5.69833 0.701955C6.81852 0.238159 8.01911 -0.000369225 9.23152 4.2899e-07C11.7241 4.2899e-07 13.807 0.917151 15.4049 2.40635L12.8026 5.00869V5.00212C11.8339 4.07935 10.6044 3.60577 9.23152 3.60577C6.1856 3.60577 3.70986 6.17904 3.70986 9.22589C3.70986 12.2718 6.1856 14.8507 9.23152 14.8507C11.9952 14.8507 13.8763 13.2705 14.2627 11.1005H9.23152V7.50037H17.9154H17.9144Z" fill="white"/>
</svg>
