<svg width="531" height="626" viewBox="0 0 531 626" fill="none" xmlns="http://www.w3.org/2000/svg">
<g filter="url(#filter0_d)">
<rect x="17" y="10" width="503" height="598" rx="10" fill="#6ECCB1"/>
</g>
<path d="M114.158 218.734V223.222H119.438V225.268H114.158V229.954H120.098V232H111.65V216.688H120.098V218.734H114.158ZM137.861 219.68C138.814 219.68 139.665 219.878 140.413 220.274C141.176 220.67 141.77 221.257 142.195 222.034C142.635 222.811 142.855 223.75 142.855 224.85V232H140.369V225.224C140.369 224.139 140.098 223.31 139.555 222.738C139.012 222.151 138.272 221.858 137.333 221.858C136.394 221.858 135.646 222.151 135.089 222.738C134.546 223.31 134.275 224.139 134.275 225.224V232H131.789V225.224C131.789 224.139 131.518 223.31 130.975 222.738C130.432 222.151 129.692 221.858 128.753 221.858C127.814 221.858 127.066 222.151 126.509 222.738C125.966 223.31 125.695 224.139 125.695 225.224V232H123.187V219.878H125.695V221.264C126.106 220.765 126.626 220.377 127.257 220.098C127.888 219.819 128.562 219.68 129.281 219.68C130.249 219.68 131.114 219.885 131.877 220.296C132.64 220.707 133.226 221.301 133.637 222.078C134.004 221.345 134.576 220.765 135.353 220.34C136.13 219.9 136.966 219.68 137.861 219.68ZM145.21 225.884C145.21 224.667 145.46 223.589 145.958 222.65C146.472 221.711 147.161 220.985 148.026 220.472C148.906 219.944 149.874 219.68 150.93 219.68C151.884 219.68 152.712 219.871 153.416 220.252C154.135 220.619 154.707 221.081 155.132 221.638V219.878H157.662V232H155.132V230.196C154.707 230.768 154.128 231.245 153.394 231.626C152.661 232.007 151.825 232.198 150.886 232.198C149.845 232.198 148.892 231.934 148.026 231.406C147.161 230.863 146.472 230.115 145.958 229.162C145.46 228.194 145.21 227.101 145.21 225.884ZM155.132 225.928C155.132 225.092 154.956 224.366 154.604 223.75C154.267 223.134 153.82 222.665 153.262 222.342C152.705 222.019 152.104 221.858 151.458 221.858C150.813 221.858 150.212 222.019 149.654 222.342C149.097 222.65 148.642 223.112 148.29 223.728C147.953 224.329 147.784 225.048 147.784 225.884C147.784 226.72 147.953 227.453 148.29 228.084C148.642 228.715 149.097 229.199 149.654 229.536C150.226 229.859 150.828 230.02 151.458 230.02C152.104 230.02 152.705 229.859 153.262 229.536C153.82 229.213 154.267 228.744 154.604 228.128C154.956 227.497 155.132 226.764 155.132 225.928ZM162.233 218.272C161.778 218.272 161.397 218.118 161.089 217.81C160.781 217.502 160.627 217.121 160.627 216.666C160.627 216.211 160.781 215.83 161.089 215.522C161.397 215.214 161.778 215.06 162.233 215.06C162.673 215.06 163.047 215.214 163.355 215.522C163.663 215.83 163.817 216.211 163.817 216.666C163.817 217.121 163.663 217.502 163.355 217.81C163.047 218.118 162.673 218.272 162.233 218.272ZM163.465 219.878V232H160.957V219.878H163.465ZM169.265 215.72V232H166.757V215.72H169.265Z" fill="white"/>
<path d="M122.342 339.264C122.342 340.041 122.159 340.775 121.792 341.464C121.425 342.153 120.839 342.718 120.032 343.158C119.225 343.583 118.191 343.796 116.93 343.796H114.158V350H111.65V334.71H116.93C118.103 334.71 119.093 334.915 119.9 335.326C120.721 335.722 121.33 336.265 121.726 336.954C122.137 337.643 122.342 338.413 122.342 339.264ZM116.93 341.75C117.883 341.75 118.595 341.537 119.064 341.112C119.533 340.672 119.768 340.056 119.768 339.264C119.768 337.592 118.822 336.756 116.93 336.756H114.158V341.75H116.93ZM123.898 343.884C123.898 342.667 124.147 341.589 124.646 340.65C125.159 339.711 125.849 338.985 126.714 338.472C127.594 337.944 128.562 337.68 129.618 337.68C130.571 337.68 131.4 337.871 132.104 338.252C132.823 338.619 133.395 339.081 133.82 339.638V337.878H136.35V350H133.82V348.196C133.395 348.768 132.815 349.245 132.082 349.626C131.349 350.007 130.513 350.198 129.574 350.198C128.533 350.198 127.579 349.934 126.714 349.406C125.849 348.863 125.159 348.115 124.646 347.162C124.147 346.194 123.898 345.101 123.898 343.884ZM133.82 343.928C133.82 343.092 133.644 342.366 133.292 341.75C132.955 341.134 132.507 340.665 131.95 340.342C131.393 340.019 130.791 339.858 130.146 339.858C129.501 339.858 128.899 340.019 128.342 340.342C127.785 340.65 127.33 341.112 126.978 341.728C126.641 342.329 126.472 343.048 126.472 343.884C126.472 344.72 126.641 345.453 126.978 346.084C127.33 346.715 127.785 347.199 128.342 347.536C128.914 347.859 129.515 348.02 130.146 348.02C130.791 348.02 131.393 347.859 131.95 347.536C132.507 347.213 132.955 346.744 133.292 346.128C133.644 345.497 133.82 344.764 133.82 343.928ZM144.044 350.198C143.091 350.198 142.233 350.029 141.47 349.692C140.722 349.34 140.128 348.871 139.688 348.284C139.248 347.683 139.013 347.015 138.984 346.282H141.58C141.624 346.795 141.866 347.228 142.306 347.58C142.761 347.917 143.325 348.086 144 348.086C144.704 348.086 145.247 347.954 145.628 347.69C146.024 347.411 146.222 347.059 146.222 346.634C146.222 346.179 146.002 345.842 145.562 345.622C145.137 345.402 144.455 345.16 143.516 344.896C142.607 344.647 141.866 344.405 141.294 344.17C140.722 343.935 140.223 343.576 139.798 343.092C139.387 342.608 139.182 341.97 139.182 341.178C139.182 340.533 139.373 339.946 139.754 339.418C140.135 338.875 140.678 338.45 141.382 338.142C142.101 337.834 142.922 337.68 143.846 337.68C145.225 337.68 146.332 338.032 147.168 338.736C148.019 339.425 148.473 340.371 148.532 341.574H146.024C145.98 341.031 145.76 340.599 145.364 340.276C144.968 339.953 144.433 339.792 143.758 339.792C143.098 339.792 142.592 339.917 142.24 340.166C141.888 340.415 141.712 340.745 141.712 341.156C141.712 341.479 141.829 341.75 142.064 341.97C142.299 342.19 142.585 342.366 142.922 342.498C143.259 342.615 143.758 342.769 144.418 342.96C145.298 343.195 146.017 343.437 146.574 343.686C147.146 343.921 147.637 344.273 148.048 344.742C148.459 345.211 148.671 345.835 148.686 346.612C148.686 347.301 148.495 347.917 148.114 348.46C147.733 349.003 147.19 349.428 146.486 349.736C145.797 350.044 144.983 350.198 144.044 350.198ZM155.796 350.198C154.843 350.198 153.985 350.029 153.222 349.692C152.474 349.34 151.88 348.871 151.44 348.284C151 347.683 150.765 347.015 150.736 346.282H153.332C153.376 346.795 153.618 347.228 154.058 347.58C154.513 347.917 155.077 348.086 155.752 348.086C156.456 348.086 156.999 347.954 157.38 347.69C157.776 347.411 157.974 347.059 157.974 346.634C157.974 346.179 157.754 345.842 157.314 345.622C156.889 345.402 156.207 345.16 155.268 344.896C154.359 344.647 153.618 344.405 153.046 344.17C152.474 343.935 151.975 343.576 151.55 343.092C151.139 342.608 150.934 341.97 150.934 341.178C150.934 340.533 151.125 339.946 151.506 339.418C151.887 338.875 152.43 338.45 153.134 338.142C153.853 337.834 154.674 337.68 155.598 337.68C156.977 337.68 158.084 338.032 158.92 338.736C159.771 339.425 160.225 340.371 160.284 341.574H157.776C157.732 341.031 157.512 340.599 157.116 340.276C156.72 339.953 156.185 339.792 155.51 339.792C154.85 339.792 154.344 339.917 153.992 340.166C153.64 340.415 153.464 340.745 153.464 341.156C153.464 341.479 153.581 341.75 153.816 341.97C154.051 342.19 154.337 342.366 154.674 342.498C155.011 342.615 155.51 342.769 156.17 342.96C157.05 343.195 157.769 343.437 158.326 343.686C158.898 343.921 159.389 344.273 159.8 344.742C160.211 345.211 160.423 345.835 160.438 346.612C160.438 347.301 160.247 347.917 159.866 348.46C159.485 349.003 158.942 349.428 158.238 349.736C157.549 350.044 156.735 350.198 155.796 350.198ZM179.428 337.878L175.666 350H173.026L170.584 341.046L168.142 350H165.502L161.718 337.878H164.27L166.8 347.624L169.374 337.878H171.992L174.456 347.58L176.964 337.878H179.428ZM186.56 350.198C185.416 350.198 184.382 349.941 183.458 349.428C182.534 348.9 181.808 348.167 181.28 347.228C180.752 346.275 180.488 345.175 180.488 343.928C180.488 342.696 180.76 341.603 181.302 340.65C181.845 339.697 182.586 338.963 183.524 338.45C184.463 337.937 185.512 337.68 186.67 337.68C187.829 337.68 188.878 337.937 189.816 338.45C190.755 338.963 191.496 339.697 192.038 340.65C192.581 341.603 192.852 342.696 192.852 343.928C192.852 345.16 192.574 346.253 192.016 347.206C191.459 348.159 190.696 348.9 189.728 349.428C188.775 349.941 187.719 350.198 186.56 350.198ZM186.56 348.02C187.206 348.02 187.807 347.866 188.364 347.558C188.936 347.25 189.398 346.788 189.75 346.172C190.102 345.556 190.278 344.808 190.278 343.928C190.278 343.048 190.11 342.307 189.772 341.706C189.435 341.09 188.988 340.628 188.43 340.32C187.873 340.012 187.272 339.858 186.626 339.858C185.981 339.858 185.38 340.012 184.822 340.32C184.28 340.628 183.847 341.09 183.524 341.706C183.202 342.307 183.04 343.048 183.04 343.928C183.04 345.233 183.37 346.245 184.03 346.964C184.705 347.668 185.548 348.02 186.56 348.02ZM197.84 339.638C198.206 339.022 198.69 338.545 199.292 338.208C199.908 337.856 200.634 337.68 201.47 337.68V340.276H200.832C199.849 340.276 199.101 340.525 198.588 341.024C198.089 341.523 197.84 342.388 197.84 343.62V350H195.332V337.878H197.84V339.638ZM202.939 343.884C202.939 342.667 203.188 341.589 203.687 340.65C204.2 339.711 204.89 338.985 205.755 338.472C206.635 337.944 207.61 337.68 208.681 337.68C209.473 337.68 210.25 337.856 211.013 338.208C211.79 338.545 212.406 339 212.861 339.572V333.72H215.391V350H212.861V348.174C212.45 348.761 211.878 349.245 211.145 349.626C210.426 350.007 209.598 350.198 208.659 350.198C207.603 350.198 206.635 349.934 205.755 349.406C204.89 348.863 204.2 348.115 203.687 347.162C203.188 346.194 202.939 345.101 202.939 343.884ZM212.861 343.928C212.861 343.092 212.685 342.366 212.333 341.75C211.996 341.134 211.548 340.665 210.991 340.342C210.434 340.019 209.832 339.858 209.187 339.858C208.542 339.858 207.94 340.019 207.383 340.342C206.826 340.65 206.371 341.112 206.019 341.728C205.682 342.329 205.513 343.048 205.513 343.884C205.513 344.72 205.682 345.453 206.019 346.084C206.371 346.715 206.826 347.199 207.383 347.536C207.955 347.859 208.556 348.02 209.187 348.02C209.832 348.02 210.434 347.859 210.991 347.536C211.548 347.213 211.996 346.744 212.333 346.128C212.685 345.497 212.861 344.764 212.861 343.928Z" fill="white"/>
<path d="M119.108 135.454V136.786H115.688V148H114.05V136.786H110.612V135.454H119.108ZM130.124 142.69C130.124 143.002 130.106 143.332 130.07 143.68H122.186C122.246 144.652 122.576 145.414 123.176 145.966C123.788 146.506 124.526 146.776 125.39 146.776C126.098 146.776 126.686 146.614 127.154 146.29C127.634 145.954 127.97 145.51 128.162 144.958H129.926C129.662 145.906 129.134 146.68 128.342 147.28C127.55 147.868 126.566 148.162 125.39 148.162C124.454 148.162 123.614 147.952 122.87 147.532C122.138 147.112 121.562 146.518 121.142 145.75C120.722 144.97 120.512 144.07 120.512 143.05C120.512 142.03 120.716 141.136 121.124 140.368C121.532 139.6 122.102 139.012 122.834 138.604C123.578 138.184 124.43 137.974 125.39 137.974C126.326 137.974 127.154 138.178 127.874 138.586C128.594 138.994 129.146 139.558 129.53 140.278C129.926 140.986 130.124 141.79 130.124 142.69ZM128.432 142.348C128.432 141.724 128.294 141.19 128.018 140.746C127.742 140.29 127.364 139.948 126.884 139.72C126.416 139.48 125.894 139.36 125.318 139.36C124.49 139.36 123.782 139.624 123.194 140.152C122.618 140.68 122.288 141.412 122.204 142.348H128.432ZM133.924 139.738C134.212 139.174 134.62 138.736 135.148 138.424C135.688 138.112 136.342 137.956 137.11 137.956V139.648H136.678C134.842 139.648 133.924 140.644 133.924 142.636V148H132.286V138.136H133.924V139.738ZM140.639 139.738C140.927 139.174 141.335 138.736 141.863 138.424C142.403 138.112 143.057 137.956 143.825 137.956V139.648H143.393C141.557 139.648 140.639 140.644 140.639 142.636V148H139.001V138.136H140.639V139.738ZM154.212 138.136L148.272 152.644H146.58L148.524 147.892L144.546 138.136H146.364L149.46 146.128L152.52 138.136H154.212ZM176.425 135.454L172.789 148H170.953L168.037 137.902L165.013 148L163.195 148.018L159.685 135.454H161.431L164.167 146.092L167.191 135.454H169.027L171.907 146.056L174.661 135.454H176.425ZM182.52 148.162C181.596 148.162 180.756 147.952 180 147.532C179.256 147.112 178.668 146.518 178.236 145.75C177.816 144.97 177.606 144.07 177.606 143.05C177.606 142.042 177.822 141.154 178.254 140.386C178.698 139.606 179.298 139.012 180.054 138.604C180.81 138.184 181.656 137.974 182.592 137.974C183.528 137.974 184.374 138.184 185.13 138.604C185.886 139.012 186.48 139.6 186.912 140.368C187.356 141.136 187.578 142.03 187.578 143.05C187.578 144.07 187.35 144.97 186.894 145.75C186.45 146.518 185.844 147.112 185.076 147.532C184.308 147.952 183.456 148.162 182.52 148.162ZM182.52 146.722C183.108 146.722 183.66 146.584 184.176 146.308C184.692 146.032 185.106 145.618 185.418 145.066C185.742 144.514 185.904 143.842 185.904 143.05C185.904 142.258 185.748 141.586 185.436 141.034C185.124 140.482 184.716 140.074 184.212 139.81C183.708 139.534 183.162 139.396 182.574 139.396C181.974 139.396 181.422 139.534 180.918 139.81C180.426 140.074 180.03 140.482 179.73 141.034C179.43 141.586 179.28 142.258 179.28 143.05C179.28 143.854 179.424 144.532 179.712 145.084C180.012 145.636 180.408 146.05 180.9 146.326C181.392 146.59 181.932 146.722 182.52 146.722ZM191.37 139.738C191.658 139.174 192.066 138.736 192.594 138.424C193.134 138.112 193.788 137.956 194.556 137.956V139.648H194.124C192.288 139.648 191.37 140.644 191.37 142.636V148H189.732V138.136H191.37V139.738ZM201.955 148L198.085 143.644V148H196.447V134.68H198.085V142.51L201.883 138.136H204.169L199.525 143.05L204.187 148H201.955ZM205.098 143.032C205.098 142.024 205.302 141.142 205.71 140.386C206.118 139.618 206.676 139.024 207.384 138.604C208.104 138.184 208.902 137.974 209.778 137.974C210.642 137.974 211.392 138.16 212.028 138.532C212.664 138.904 213.138 139.372 213.45 139.936V138.136H215.106V148H213.45V146.164C213.126 146.74 212.64 147.22 211.992 147.604C211.356 147.976 210.612 148.162 209.76 148.162C208.884 148.162 208.092 147.946 207.384 147.514C206.676 147.082 206.118 146.476 205.71 145.696C205.302 144.916 205.098 144.028 205.098 143.032ZM213.45 143.05C213.45 142.306 213.3 141.658 213 141.106C212.7 140.554 212.292 140.134 211.776 139.846C211.272 139.546 210.714 139.396 210.102 139.396C209.49 139.396 208.932 139.54 208.428 139.828C207.924 140.116 207.522 140.536 207.222 141.088C206.922 141.64 206.772 142.288 206.772 143.032C206.772 143.788 206.922 144.448 207.222 145.012C207.522 145.564 207.924 145.99 208.428 146.29C208.932 146.578 209.49 146.722 210.102 146.722C210.714 146.722 211.272 146.578 211.776 146.29C212.292 145.99 212.7 145.564 213 145.012C213.3 144.448 213.45 143.794 213.45 143.05ZM222.77 137.956C223.514 137.956 224.186 138.118 224.786 138.442C225.386 138.754 225.854 139.228 226.19 139.864C226.538 140.5 226.712 141.274 226.712 142.186V148H225.092V142.42C225.092 141.436 224.846 140.686 224.354 140.17C223.862 139.642 223.19 139.378 222.338 139.378C221.474 139.378 220.784 139.648 220.268 140.188C219.764 140.728 219.512 141.514 219.512 142.546V148H217.874V134.68H219.512V139.54C219.836 139.036 220.28 138.646 220.844 138.37C221.42 138.094 222.062 137.956 222.77 137.956ZM233.69 148.162C232.766 148.162 231.926 147.952 231.17 147.532C230.426 147.112 229.838 146.518 229.406 145.75C228.986 144.97 228.776 144.07 228.776 143.05C228.776 142.042 228.992 141.154 229.424 140.386C229.868 139.606 230.468 139.012 231.224 138.604C231.98 138.184 232.826 137.974 233.762 137.974C234.698 137.974 235.544 138.184 236.3 138.604C237.056 139.012 237.65 139.6 238.082 140.368C238.526 141.136 238.748 142.03 238.748 143.05C238.748 144.07 238.52 144.97 238.064 145.75C237.62 146.518 237.014 147.112 236.246 147.532C235.478 147.952 234.626 148.162 233.69 148.162ZM233.69 146.722C234.278 146.722 234.83 146.584 235.346 146.308C235.862 146.032 236.276 145.618 236.588 145.066C236.912 144.514 237.074 143.842 237.074 143.05C237.074 142.258 236.918 141.586 236.606 141.034C236.294 140.482 235.886 140.074 235.382 139.81C234.878 139.534 234.332 139.396 233.744 139.396C233.144 139.396 232.592 139.534 232.088 139.81C231.596 140.074 231.2 140.482 230.9 141.034C230.6 141.586 230.45 142.258 230.45 143.05C230.45 143.854 230.594 144.532 230.882 145.084C231.182 145.636 231.578 146.05 232.07 146.326C232.562 146.59 233.102 146.722 233.69 146.722ZM242.54 134.68V148H240.902V134.68H242.54ZM246.177 136.534C245.865 136.534 245.601 136.426 245.385 136.21C245.169 135.994 245.061 135.73 245.061 135.418C245.061 135.106 245.169 134.842 245.385 134.626C245.601 134.41 245.865 134.302 246.177 134.302C246.477 134.302 246.729 134.41 246.933 134.626C247.149 134.842 247.257 135.106 247.257 135.418C247.257 135.73 247.149 135.994 246.933 136.21C246.729 136.426 246.477 136.534 246.177 136.534ZM246.969 138.136V148H245.331V138.136H246.969ZM249.149 143.05C249.149 142.03 249.353 141.142 249.761 140.386C250.169 139.618 250.733 139.024 251.453 138.604C252.185 138.184 253.019 137.974 253.955 137.974C255.167 137.974 256.163 138.268 256.943 138.856C257.735 139.444 258.257 140.26 258.509 141.304H256.745C256.577 140.704 256.247 140.23 255.755 139.882C255.275 139.534 254.675 139.36 253.955 139.36C253.019 139.36 252.263 139.684 251.687 140.332C251.111 140.968 250.823 141.874 250.823 143.05C250.823 144.238 251.111 145.156 251.687 145.804C252.263 146.452 253.019 146.776 253.955 146.776C254.675 146.776 255.275 146.608 255.755 146.272C256.235 145.936 256.565 145.456 256.745 144.832H258.509C258.245 145.84 257.717 146.65 256.925 147.262C256.133 147.862 255.143 148.162 253.955 148.162C253.019 148.162 252.185 147.952 251.453 147.532C250.733 147.112 250.169 146.518 249.761 145.75C249.353 144.982 249.149 144.082 249.149 143.05Z" fill="white"/>
<path d="M113.384 257.486V263.3C113.384 263.78 113.486 264.122 113.69 264.326C113.894 264.518 114.248 264.614 114.752 264.614H115.958V266H114.482C113.57 266 112.886 265.79 112.43 265.37C111.974 264.95 111.746 264.26 111.746 263.3V257.486H110.468V256.136H111.746V253.652H113.384V256.136H115.958V257.486H113.384ZM131.083 256.136L128.005 266H126.313L123.937 258.17L121.561 266H119.869L116.773 256.136H118.447L120.715 264.416L123.163 256.136H124.837L127.231 264.434L129.463 256.136H131.083ZM137.01 266.162C136.086 266.162 135.246 265.952 134.49 265.532C133.746 265.112 133.158 264.518 132.726 263.75C132.306 262.97 132.096 262.07 132.096 261.05C132.096 260.042 132.312 259.154 132.744 258.386C133.188 257.606 133.788 257.012 134.544 256.604C135.3 256.184 136.146 255.974 137.082 255.974C138.018 255.974 138.864 256.184 139.62 256.604C140.376 257.012 140.97 257.6 141.402 258.368C141.846 259.136 142.068 260.03 142.068 261.05C142.068 262.07 141.84 262.97 141.384 263.75C140.94 264.518 140.334 265.112 139.566 265.532C138.798 265.952 137.946 266.162 137.01 266.162ZM137.01 264.722C137.598 264.722 138.15 264.584 138.666 264.308C139.182 264.032 139.596 263.618 139.908 263.066C140.232 262.514 140.394 261.842 140.394 261.05C140.394 260.258 140.238 259.586 139.926 259.034C139.614 258.482 139.206 258.074 138.702 257.81C138.198 257.534 137.652 257.396 137.064 257.396C136.464 257.396 135.912 257.534 135.408 257.81C134.916 258.074 134.52 258.482 134.22 259.034C133.92 259.586 133.77 260.258 133.77 261.05C133.77 261.854 133.914 262.532 134.202 263.084C134.502 263.636 134.898 264.05 135.39 264.326C135.882 264.59 136.422 264.722 137.01 264.722ZM145.86 257.738C146.148 257.174 146.556 256.736 147.084 256.424C147.624 256.112 148.278 255.956 149.046 255.956V257.648H148.614C146.778 257.648 145.86 258.644 145.86 260.636V266H144.222V256.136H145.86V257.738ZM156.445 266L152.575 261.644V266H150.937V252.68H152.575V260.51L156.373 256.136H158.659L154.015 261.05L158.677 266H156.445ZM159.588 261.032C159.588 260.024 159.792 259.142 160.2 258.386C160.608 257.618 161.166 257.024 161.874 256.604C162.594 256.184 163.392 255.974 164.268 255.974C165.132 255.974 165.882 256.16 166.518 256.532C167.154 256.904 167.628 257.372 167.94 257.936V256.136H169.596V266H167.94V264.164C167.616 264.74 167.13 265.22 166.482 265.604C165.846 265.976 165.102 266.162 164.25 266.162C163.374 266.162 162.582 265.946 161.874 265.514C161.166 265.082 160.608 264.476 160.2 263.696C159.792 262.916 159.588 262.028 159.588 261.032ZM167.94 261.05C167.94 260.306 167.79 259.658 167.49 259.106C167.19 258.554 166.782 258.134 166.266 257.846C165.762 257.546 165.204 257.396 164.592 257.396C163.98 257.396 163.422 257.54 162.918 257.828C162.414 258.116 162.012 258.536 161.712 259.088C161.412 259.64 161.262 260.288 161.262 261.032C161.262 261.788 161.412 262.448 161.712 263.012C162.012 263.564 162.414 263.99 162.918 264.29C163.422 264.578 163.98 264.722 164.592 264.722C165.204 264.722 165.762 264.578 166.266 264.29C166.782 263.99 167.19 263.564 167.49 263.012C167.79 262.448 167.94 261.794 167.94 261.05ZM177.261 255.956C178.005 255.956 178.677 256.118 179.277 256.442C179.877 256.754 180.345 257.228 180.681 257.864C181.029 258.5 181.203 259.274 181.203 260.186V266H179.583V260.42C179.583 259.436 179.337 258.686 178.845 258.17C178.353 257.642 177.681 257.378 176.829 257.378C175.965 257.378 175.275 257.648 174.759 258.188C174.255 258.728 174.003 259.514 174.003 260.546V266H172.365V252.68H174.003V257.54C174.327 257.036 174.771 256.646 175.335 256.37C175.911 256.094 176.553 255.956 177.261 255.956ZM188.18 266.162C187.256 266.162 186.416 265.952 185.66 265.532C184.916 265.112 184.328 264.518 183.896 263.75C183.476 262.97 183.266 262.07 183.266 261.05C183.266 260.042 183.482 259.154 183.914 258.386C184.358 257.606 184.958 257.012 185.714 256.604C186.47 256.184 187.316 255.974 188.252 255.974C189.188 255.974 190.034 256.184 190.79 256.604C191.546 257.012 192.14 257.6 192.572 258.368C193.016 259.136 193.238 260.03 193.238 261.05C193.238 262.07 193.01 262.97 192.554 263.75C192.11 264.518 191.504 265.112 190.736 265.532C189.968 265.952 189.116 266.162 188.18 266.162ZM188.18 264.722C188.768 264.722 189.32 264.584 189.836 264.308C190.352 264.032 190.766 263.618 191.078 263.066C191.402 262.514 191.564 261.842 191.564 261.05C191.564 260.258 191.408 259.586 191.096 259.034C190.784 258.482 190.376 258.074 189.872 257.81C189.368 257.534 188.822 257.396 188.234 257.396C187.634 257.396 187.082 257.534 186.578 257.81C186.086 258.074 185.69 258.482 185.39 259.034C185.09 259.586 184.94 260.258 184.94 261.05C184.94 261.854 185.084 262.532 185.372 263.084C185.672 263.636 186.068 264.05 186.56 264.326C187.052 264.59 187.592 264.722 188.18 264.722ZM197.03 252.68V266H195.392V252.68H197.03ZM200.668 254.534C200.356 254.534 200.092 254.426 199.876 254.21C199.66 253.994 199.552 253.73 199.552 253.418C199.552 253.106 199.66 252.842 199.876 252.626C200.092 252.41 200.356 252.302 200.668 252.302C200.968 252.302 201.22 252.41 201.424 252.626C201.64 252.842 201.748 253.106 201.748 253.418C201.748 253.73 201.64 253.994 201.424 254.21C201.22 254.426 200.968 254.534 200.668 254.534ZM201.46 256.136V266H199.822V256.136H201.46ZM203.639 261.05C203.639 260.03 203.843 259.142 204.251 258.386C204.659 257.618 205.223 257.024 205.943 256.604C206.675 256.184 207.509 255.974 208.445 255.974C209.657 255.974 210.653 256.268 211.433 256.856C212.225 257.444 212.747 258.26 212.999 259.304H211.235C211.067 258.704 210.737 258.23 210.245 257.882C209.765 257.534 209.165 257.36 208.445 257.36C207.509 257.36 206.753 257.684 206.177 258.332C205.601 258.968 205.313 259.874 205.313 261.05C205.313 262.238 205.601 263.156 206.177 263.804C206.753 264.452 207.509 264.776 208.445 264.776C209.165 264.776 209.765 264.608 210.245 264.272C210.725 263.936 211.055 263.456 211.235 262.832H212.999C212.735 263.84 212.207 264.65 211.415 265.262C210.623 265.862 209.633 266.162 208.445 266.162C207.509 266.162 206.675 265.952 205.943 265.532C205.223 265.112 204.659 264.518 204.251 263.75C203.843 262.982 203.639 262.082 203.639 261.05ZM224.185 254.462C225.517 254.462 226.675 254.714 227.659 255.218C228.643 255.722 229.399 256.43 229.927 257.342C230.455 258.242 230.719 259.286 230.719 260.474C230.719 261.422 230.563 262.334 230.251 263.21C229.939 264.074 229.483 264.776 228.883 265.316C228.295 265.856 227.605 266.126 226.813 266.126C226.213 266.126 225.751 265.976 225.427 265.676C225.103 265.376 224.917 264.968 224.869 264.452C224.497 264.968 224.023 265.376 223.447 265.676C222.883 265.976 222.283 266.126 221.647 266.126C220.735 266.126 220.015 265.85 219.487 265.298C218.971 264.734 218.713 263.978 218.713 263.03C218.713 262.13 218.899 261.29 219.271 260.51C219.655 259.73 220.183 259.106 220.855 258.638C221.527 258.158 222.289 257.918 223.141 257.918C224.281 257.918 225.049 258.35 225.445 259.214L225.643 258.098H227.065L226.165 263.3C226.129 263.528 226.111 263.738 226.111 263.93C226.111 264.65 226.429 265.01 227.065 265.01C227.545 265.01 227.959 264.782 228.307 264.326C228.667 263.87 228.937 263.3 229.117 262.616C229.297 261.92 229.387 261.236 229.387 260.564C229.387 258.992 228.913 257.774 227.965 256.91C227.029 256.046 225.703 255.614 223.987 255.614C222.559 255.614 221.269 255.962 220.117 256.658C218.977 257.342 218.083 258.284 217.435 259.484C216.787 260.684 216.463 262.01 216.463 263.462C216.451 265.046 216.925 266.264 217.885 267.116C218.845 267.98 220.177 268.412 221.881 268.412C223.009 268.412 224.005 268.208 224.869 267.8L225.085 268.916C224.017 269.36 222.841 269.582 221.557 269.582C220.273 269.582 219.139 269.336 218.155 268.844C217.183 268.364 216.427 267.668 215.887 266.756C215.359 265.856 215.095 264.806 215.095 263.606C215.095 261.914 215.485 260.372 216.265 258.98C217.045 257.576 218.125 256.472 219.505 255.668C220.897 254.864 222.457 254.462 224.185 254.462ZM222.133 264.848C222.673 264.848 223.171 264.692 223.627 264.38C224.083 264.056 224.443 263.624 224.707 263.084C224.971 262.532 225.103 261.932 225.103 261.284C225.103 260.66 224.929 260.156 224.581 259.772C224.245 259.376 223.765 259.178 223.141 259.178C222.565 259.178 222.055 259.352 221.611 259.7C221.179 260.036 220.843 260.486 220.603 261.05C220.363 261.602 220.243 262.178 220.243 262.778C220.243 263.414 220.405 263.918 220.729 264.29C221.053 264.662 221.521 264.848 222.133 264.848ZM237.481 255.974C238.333 255.974 239.077 256.16 239.713 256.532C240.361 256.904 240.841 257.372 241.153 257.936V256.136H242.809V266.216C242.809 267.116 242.617 267.914 242.233 268.61C241.849 269.318 241.297 269.87 240.577 270.266C239.869 270.662 239.041 270.86 238.093 270.86C236.797 270.86 235.717 270.554 234.853 269.942C233.989 269.33 233.479 268.496 233.323 267.44H234.943C235.123 268.04 235.495 268.52 236.059 268.88C236.623 269.252 237.301 269.438 238.093 269.438C238.993 269.438 239.725 269.156 240.289 268.592C240.865 268.028 241.153 267.236 241.153 266.216V264.146C240.829 264.722 240.349 265.202 239.713 265.586C239.077 265.97 238.333 266.162 237.481 266.162C236.605 266.162 235.807 265.946 235.087 265.514C234.379 265.082 233.821 264.476 233.413 263.696C233.005 262.916 232.801 262.028 232.801 261.032C232.801 260.024 233.005 259.142 233.413 258.386C233.821 257.618 234.379 257.024 235.087 256.604C235.807 256.184 236.605 255.974 237.481 255.974ZM241.153 261.05C241.153 260.306 241.003 259.658 240.703 259.106C240.403 258.554 239.995 258.134 239.479 257.846C238.975 257.546 238.417 257.396 237.805 257.396C237.193 257.396 236.635 257.54 236.131 257.828C235.627 258.116 235.225 258.536 234.925 259.088C234.625 259.64 234.475 260.288 234.475 261.032C234.475 261.788 234.625 262.448 234.925 263.012C235.225 263.564 235.627 263.99 236.131 264.29C236.635 264.578 237.193 264.722 237.805 264.722C238.417 264.722 238.975 264.578 239.479 264.29C239.995 263.99 240.403 263.564 240.703 263.012C241.003 262.448 241.153 261.794 241.153 261.05ZM257.439 255.956C258.207 255.956 258.891 256.118 259.491 256.442C260.091 256.754 260.565 257.228 260.913 257.864C261.261 258.5 261.435 259.274 261.435 260.186V266H259.815V260.42C259.815 259.436 259.569 258.686 259.077 258.17C258.597 257.642 257.943 257.378 257.115 257.378C256.263 257.378 255.585 257.654 255.081 258.206C254.577 258.746 254.325 259.532 254.325 260.564V266H252.705V260.42C252.705 259.436 252.459 258.686 251.967 258.17C251.487 257.642 250.833 257.378 250.005 257.378C249.153 257.378 248.475 257.654 247.971 258.206C247.467 258.746 247.215 259.532 247.215 260.564V266H245.577V256.136H247.215V257.558C247.539 257.042 247.971 256.646 248.511 256.37C249.063 256.094 249.669 255.956 250.329 255.956C251.157 255.956 251.889 256.142 252.525 256.514C253.161 256.886 253.635 257.432 253.947 258.152C254.223 257.456 254.679 256.916 255.315 256.532C255.951 256.148 256.659 255.956 257.439 255.956ZM263.51 261.032C263.51 260.024 263.714 259.142 264.122 258.386C264.53 257.618 265.088 257.024 265.796 256.604C266.516 256.184 267.314 255.974 268.19 255.974C269.054 255.974 269.804 256.16 270.44 256.532C271.076 256.904 271.55 257.372 271.862 257.936V256.136H273.518V266H271.862V264.164C271.538 264.74 271.052 265.22 270.404 265.604C269.768 265.976 269.024 266.162 268.172 266.162C267.296 266.162 266.504 265.946 265.796 265.514C265.088 265.082 264.53 264.476 264.122 263.696C263.714 262.916 263.51 262.028 263.51 261.032ZM271.862 261.05C271.862 260.306 271.712 259.658 271.412 259.106C271.112 258.554 270.704 258.134 270.188 257.846C269.684 257.546 269.126 257.396 268.514 257.396C267.902 257.396 267.344 257.54 266.84 257.828C266.336 258.116 265.934 258.536 265.634 259.088C265.334 259.64 265.184 260.288 265.184 261.032C265.184 261.788 265.334 262.448 265.634 263.012C265.934 263.564 266.336 263.99 266.84 264.29C267.344 264.578 267.902 264.722 268.514 264.722C269.126 264.722 269.684 264.578 270.188 264.29C270.704 263.99 271.112 263.564 271.412 263.012C271.712 262.448 271.862 261.794 271.862 261.05ZM277.132 254.534C276.82 254.534 276.556 254.426 276.34 254.21C276.124 253.994 276.016 253.73 276.016 253.418C276.016 253.106 276.124 252.842 276.34 252.626C276.556 252.41 276.82 252.302 277.132 252.302C277.432 252.302 277.684 252.41 277.888 252.626C278.104 252.842 278.212 253.106 278.212 253.418C278.212 253.73 278.104 253.994 277.888 254.21C277.684 254.426 277.432 254.534 277.132 254.534ZM277.924 256.136V266H276.286V256.136H277.924ZM282.354 252.68V266H280.716V252.68H282.354ZM285.668 266.108C285.356 266.108 285.092 266 284.876 265.784C284.66 265.568 284.552 265.304 284.552 264.992C284.552 264.68 284.66 264.416 284.876 264.2C285.092 263.984 285.356 263.876 285.668 263.876C285.968 263.876 286.22 263.984 286.424 264.2C286.64 264.416 286.748 264.68 286.748 264.992C286.748 265.304 286.64 265.568 286.424 265.784C286.22 266 285.968 266.108 285.668 266.108ZM288.313 261.05C288.313 260.03 288.517 259.142 288.925 258.386C289.333 257.618 289.897 257.024 290.617 256.604C291.349 256.184 292.183 255.974 293.119 255.974C294.331 255.974 295.327 256.268 296.107 256.856C296.899 257.444 297.421 258.26 297.673 259.304H295.909C295.741 258.704 295.411 258.23 294.919 257.882C294.439 257.534 293.839 257.36 293.119 257.36C292.183 257.36 291.427 257.684 290.851 258.332C290.275 258.968 289.987 259.874 289.987 261.05C289.987 262.238 290.275 263.156 290.851 263.804C291.427 264.452 292.183 264.776 293.119 264.776C293.839 264.776 294.439 264.608 294.919 264.272C295.399 263.936 295.729 263.456 295.909 262.832H297.673C297.409 263.84 296.881 264.65 296.089 265.262C295.297 265.862 294.307 266.162 293.119 266.162C292.183 266.162 291.349 265.952 290.617 265.532C289.897 265.112 289.333 264.518 288.925 263.75C288.517 262.982 288.313 262.082 288.313 261.05ZM304.161 266.162C303.237 266.162 302.397 265.952 301.641 265.532C300.897 265.112 300.309 264.518 299.877 263.75C299.457 262.97 299.247 262.07 299.247 261.05C299.247 260.042 299.463 259.154 299.895 258.386C300.339 257.606 300.939 257.012 301.695 256.604C302.451 256.184 303.297 255.974 304.233 255.974C305.169 255.974 306.015 256.184 306.771 256.604C307.527 257.012 308.121 257.6 308.553 258.368C308.997 259.136 309.219 260.03 309.219 261.05C309.219 262.07 308.991 262.97 308.535 263.75C308.091 264.518 307.485 265.112 306.717 265.532C305.949 265.952 305.097 266.162 304.161 266.162ZM304.161 264.722C304.749 264.722 305.301 264.584 305.817 264.308C306.333 264.032 306.747 263.618 307.059 263.066C307.383 262.514 307.545 261.842 307.545 261.05C307.545 260.258 307.389 259.586 307.077 259.034C306.765 258.482 306.357 258.074 305.853 257.81C305.349 257.534 304.803 257.396 304.215 257.396C303.615 257.396 303.063 257.534 302.559 257.81C302.067 258.074 301.671 258.482 301.371 259.034C301.071 259.586 300.921 260.258 300.921 261.05C300.921 261.854 301.065 262.532 301.353 263.084C301.653 263.636 302.049 264.05 302.541 264.326C303.033 264.59 303.573 264.722 304.161 264.722ZM323.234 255.956C324.002 255.956 324.686 256.118 325.286 256.442C325.886 256.754 326.36 257.228 326.708 257.864C327.056 258.5 327.23 259.274 327.23 260.186V266H325.61V260.42C325.61 259.436 325.364 258.686 324.872 258.17C324.392 257.642 323.738 257.378 322.91 257.378C322.058 257.378 321.38 257.654 320.876 258.206C320.372 258.746 320.12 259.532 320.12 260.564V266H318.5V260.42C318.5 259.436 318.254 258.686 317.762 258.17C317.282 257.642 316.628 257.378 315.8 257.378C314.948 257.378 314.27 257.654 313.766 258.206C313.262 258.746 313.01 259.532 313.01 260.564V266H311.372V256.136H313.01V257.558C313.334 257.042 313.766 256.646 314.306 256.37C314.858 256.094 315.464 255.956 316.124 255.956C316.952 255.956 317.684 256.142 318.32 256.514C318.956 256.886 319.43 257.432 319.742 258.152C320.018 257.456 320.474 256.916 321.11 256.532C321.746 256.148 322.454 255.956 323.234 255.956Z" fill="white"/>
<path d="M113.69 380.202C113.078 380.202 112.556 379.992 112.124 379.572C111.704 379.14 111.494 378.618 111.494 378.006C111.494 377.382 111.704 376.86 112.124 376.44C112.556 376.008 113.078 375.792 113.69 375.792C114.314 375.792 114.842 376.008 115.274 376.44C115.706 376.86 115.922 377.382 115.922 378.006C115.922 378.618 115.706 379.14 115.274 379.572C114.842 379.992 114.314 380.202 113.69 380.202ZM121.108 380.202C120.496 380.202 119.974 379.992 119.542 379.572C119.122 379.14 118.912 378.618 118.912 378.006C118.912 377.382 119.122 376.86 119.542 376.44C119.974 376.008 120.496 375.792 121.108 375.792C121.732 375.792 122.26 376.008 122.692 376.44C123.124 376.86 123.34 377.382 123.34 378.006C123.34 378.618 123.124 379.14 122.692 379.572C122.26 379.992 121.732 380.202 121.108 380.202ZM128.526 380.202C127.914 380.202 127.392 379.992 126.96 379.572C126.54 379.14 126.33 378.618 126.33 378.006C126.33 377.382 126.54 376.86 126.96 376.44C127.392 376.008 127.914 375.792 128.526 375.792C129.15 375.792 129.678 376.008 130.11 376.44C130.542 376.86 130.758 377.382 130.758 378.006C130.758 378.618 130.542 379.14 130.11 379.572C129.678 379.992 129.15 380.202 128.526 380.202ZM135.944 380.202C135.332 380.202 134.81 379.992 134.378 379.572C133.958 379.14 133.748 378.618 133.748 378.006C133.748 377.382 133.958 376.86 134.378 376.44C134.81 376.008 135.332 375.792 135.944 375.792C136.568 375.792 137.096 376.008 137.528 376.44C137.96 376.86 138.176 377.382 138.176 378.006C138.176 378.618 137.96 379.14 137.528 379.572C137.096 379.992 136.568 380.202 135.944 380.202ZM143.362 380.202C142.75 380.202 142.228 379.992 141.796 379.572C141.376 379.14 141.166 378.618 141.166 378.006C141.166 377.382 141.376 376.86 141.796 376.44C142.228 376.008 142.75 375.792 143.362 375.792C143.986 375.792 144.514 376.008 144.946 376.44C145.378 376.86 145.594 377.382 145.594 378.006C145.594 378.618 145.378 379.14 144.946 379.572C144.514 379.992 143.986 380.202 143.362 380.202ZM150.78 380.202C150.168 380.202 149.646 379.992 149.214 379.572C148.794 379.14 148.584 378.618 148.584 378.006C148.584 377.382 148.794 376.86 149.214 376.44C149.646 376.008 150.168 375.792 150.78 375.792C151.404 375.792 151.932 376.008 152.364 376.44C152.796 376.86 153.012 377.382 153.012 378.006C153.012 378.618 152.796 379.14 152.364 379.572C151.932 379.992 151.404 380.202 150.78 380.202ZM158.198 380.202C157.586 380.202 157.064 379.992 156.632 379.572C156.212 379.14 156.002 378.618 156.002 378.006C156.002 377.382 156.212 376.86 156.632 376.44C157.064 376.008 157.586 375.792 158.198 375.792C158.822 375.792 159.35 376.008 159.782 376.44C160.214 376.86 160.43 377.382 160.43 378.006C160.43 378.618 160.214 379.14 159.782 379.572C159.35 379.992 158.822 380.202 158.198 380.202ZM165.616 380.202C165.004 380.202 164.482 379.992 164.05 379.572C163.63 379.14 163.42 378.618 163.42 378.006C163.42 377.382 163.63 376.86 164.05 376.44C164.482 376.008 165.004 375.792 165.616 375.792C166.24 375.792 166.768 376.008 167.2 376.44C167.632 376.86 167.848 377.382 167.848 378.006C167.848 378.618 167.632 379.14 167.2 379.572C166.768 379.992 166.24 380.202 165.616 380.202ZM173.034 380.202C172.422 380.202 171.9 379.992 171.468 379.572C171.048 379.14 170.838 378.618 170.838 378.006C170.838 377.382 171.048 376.86 171.468 376.44C171.9 376.008 172.422 375.792 173.034 375.792C173.658 375.792 174.186 376.008 174.618 376.44C175.05 376.86 175.266 377.382 175.266 378.006C175.266 378.618 175.05 379.14 174.618 379.572C174.186 379.992 173.658 380.202 173.034 380.202ZM180.452 380.202C179.84 380.202 179.318 379.992 178.886 379.572C178.466 379.14 178.256 378.618 178.256 378.006C178.256 377.382 178.466 376.86 178.886 376.44C179.318 376.008 179.84 375.792 180.452 375.792C181.076 375.792 181.604 376.008 182.036 376.44C182.468 376.86 182.684 377.382 182.684 378.006C182.684 378.618 182.468 379.14 182.036 379.572C181.604 379.992 181.076 380.202 180.452 380.202ZM187.87 380.202C187.258 380.202 186.736 379.992 186.304 379.572C185.884 379.14 185.674 378.618 185.674 378.006C185.674 377.382 185.884 376.86 186.304 376.44C186.736 376.008 187.258 375.792 187.87 375.792C188.494 375.792 189.022 376.008 189.454 376.44C189.886 376.86 190.102 377.382 190.102 378.006C190.102 378.618 189.886 379.14 189.454 379.572C189.022 379.992 188.494 380.202 187.87 380.202ZM195.288 380.202C194.676 380.202 194.154 379.992 193.722 379.572C193.302 379.14 193.092 378.618 193.092 378.006C193.092 377.382 193.302 376.86 193.722 376.44C194.154 376.008 194.676 375.792 195.288 375.792C195.912 375.792 196.44 376.008 196.872 376.44C197.304 376.86 197.52 377.382 197.52 378.006C197.52 378.618 197.304 379.14 196.872 379.572C196.44 379.992 195.912 380.202 195.288 380.202ZM202.706 380.202C202.094 380.202 201.572 379.992 201.14 379.572C200.72 379.14 200.51 378.618 200.51 378.006C200.51 377.382 200.72 376.86 201.14 376.44C201.572 376.008 202.094 375.792 202.706 375.792C203.33 375.792 203.858 376.008 204.29 376.44C204.722 376.86 204.938 377.382 204.938 378.006C204.938 378.618 204.722 379.14 204.29 379.572C203.858 379.992 203.33 380.202 202.706 380.202ZM210.124 380.202C209.512 380.202 208.99 379.992 208.558 379.572C208.138 379.14 207.928 378.618 207.928 378.006C207.928 377.382 208.138 376.86 208.558 376.44C208.99 376.008 209.512 375.792 210.124 375.792C210.748 375.792 211.276 376.008 211.708 376.44C212.14 376.86 212.356 377.382 212.356 378.006C212.356 378.618 212.14 379.14 211.708 379.572C211.276 379.992 210.748 380.202 210.124 380.202ZM217.542 380.202C216.93 380.202 216.408 379.992 215.976 379.572C215.556 379.14 215.346 378.618 215.346 378.006C215.346 377.382 215.556 376.86 215.976 376.44C216.408 376.008 216.93 375.792 217.542 375.792C218.166 375.792 218.694 376.008 219.126 376.44C219.558 376.86 219.774 377.382 219.774 378.006C219.774 378.618 219.558 379.14 219.126 379.572C218.694 379.992 218.166 380.202 217.542 380.202Z" fill="white"/>
<path d="M387.097 259.388C387.097 259.676 387.089 259.896 387.073 260.048H381.637C381.661 260.544 381.781 260.968 381.997 261.32C382.213 261.672 382.497 261.94 382.849 262.124C383.201 262.3 383.585 262.388 384.001 262.388C384.545 262.388 385.001 262.256 385.369 261.992C385.745 261.728 385.993 261.372 386.113 260.924H387.001C386.841 261.564 386.497 262.088 385.969 262.496C385.449 262.896 384.793 263.096 384.001 263.096C383.385 263.096 382.833 262.96 382.345 262.688C381.857 262.408 381.473 262.016 381.193 261.512C380.921 261 380.785 260.404 380.785 259.724C380.785 259.044 380.921 258.448 381.193 257.936C381.465 257.424 381.845 257.032 382.333 256.76C382.821 256.488 383.377 256.352 384.001 256.352C384.625 256.352 385.169 256.488 385.633 256.76C386.105 257.032 386.465 257.4 386.713 257.864C386.969 258.32 387.097 258.828 387.097 259.388ZM386.245 259.364C386.253 258.876 386.153 258.46 385.945 258.116C385.745 257.772 385.469 257.512 385.117 257.336C384.765 257.16 384.381 257.072 383.965 257.072C383.341 257.072 382.809 257.272 382.369 257.672C381.929 258.072 381.685 258.636 381.637 259.364H386.245ZM388.25 259.712C388.25 259.04 388.386 258.452 388.658 257.948C388.93 257.436 389.302 257.044 389.774 256.772C390.254 256.492 390.794 256.352 391.394 256.352C391.97 256.352 392.49 256.492 392.954 256.772C393.418 257.052 393.758 257.416 393.974 257.864V254.12H394.814V263H393.974V261.536C393.774 261.992 393.446 262.368 392.99 262.664C392.534 262.952 391.998 263.096 391.382 263.096C390.782 263.096 390.242 262.956 389.762 262.676C389.29 262.396 388.918 262 388.646 261.488C388.382 260.976 388.25 260.384 388.25 259.712ZM393.974 259.724C393.974 259.196 393.866 258.732 393.65 258.332C393.434 257.932 393.138 257.624 392.762 257.408C392.394 257.192 391.986 257.084 391.538 257.084C391.074 257.084 390.658 257.188 390.29 257.396C389.922 257.604 389.63 257.908 389.414 258.308C389.206 258.7 389.102 259.168 389.102 259.712C389.102 260.248 389.206 260.72 389.414 261.128C389.63 261.528 389.922 261.836 390.29 262.052C390.658 262.26 391.074 262.364 391.538 262.364C391.986 262.364 392.394 262.256 392.762 262.04C393.138 261.824 393.434 261.516 393.65 261.116C393.866 260.716 393.974 260.252 393.974 259.724ZM397.151 255.212C396.983 255.212 396.839 255.152 396.719 255.032C396.599 254.912 396.539 254.764 396.539 254.588C396.539 254.412 396.599 254.268 396.719 254.156C396.839 254.036 396.983 253.976 397.151 253.976C397.319 253.976 397.463 254.036 397.583 254.156C397.703 254.268 397.763 254.412 397.763 254.588C397.763 254.764 397.703 254.912 397.583 255.032C397.463 255.152 397.319 255.212 397.151 255.212ZM397.571 256.448V263H396.731V256.448H397.571ZM400.566 257.156V261.224C400.566 261.624 400.642 261.9 400.794 262.052C400.946 262.204 401.214 262.28 401.598 262.28H402.366V263H401.466C400.874 263 400.434 262.864 400.146 262.592C399.858 262.312 399.714 261.856 399.714 261.224V257.156H398.802V256.448H399.714V254.804H400.566V256.448H402.366V257.156H400.566Z" fill="white"/>
<path d="M380.209 264.2H402.786V264.8H380.209V264.2Z" fill="white"/>
<path d="M387.097 141.388C387.097 141.676 387.089 141.896 387.073 142.048H381.637C381.661 142.544 381.781 142.968 381.997 143.32C382.213 143.672 382.497 143.94 382.849 144.124C383.201 144.3 383.585 144.388 384.001 144.388C384.545 144.388 385.001 144.256 385.369 143.992C385.745 143.728 385.993 143.372 386.113 142.924H387.001C386.841 143.564 386.497 144.088 385.969 144.496C385.449 144.896 384.793 145.096 384.001 145.096C383.385 145.096 382.833 144.96 382.345 144.688C381.857 144.408 381.473 144.016 381.193 143.512C380.921 143 380.785 142.404 380.785 141.724C380.785 141.044 380.921 140.448 381.193 139.936C381.465 139.424 381.845 139.032 382.333 138.76C382.821 138.488 383.377 138.352 384.001 138.352C384.625 138.352 385.169 138.488 385.633 138.76C386.105 139.032 386.465 139.4 386.713 139.864C386.969 140.32 387.097 140.828 387.097 141.388ZM386.245 141.364C386.253 140.876 386.153 140.46 385.945 140.116C385.745 139.772 385.469 139.512 385.117 139.336C384.765 139.16 384.381 139.072 383.965 139.072C383.341 139.072 382.809 139.272 382.369 139.672C381.929 140.072 381.685 140.636 381.637 141.364H386.245ZM388.25 141.712C388.25 141.04 388.386 140.452 388.658 139.948C388.93 139.436 389.302 139.044 389.774 138.772C390.254 138.492 390.794 138.352 391.394 138.352C391.97 138.352 392.49 138.492 392.954 138.772C393.418 139.052 393.758 139.416 393.974 139.864V136.12H394.814V145H393.974V143.536C393.774 143.992 393.446 144.368 392.99 144.664C392.534 144.952 391.998 145.096 391.382 145.096C390.782 145.096 390.242 144.956 389.762 144.676C389.29 144.396 388.918 144 388.646 143.488C388.382 142.976 388.25 142.384 388.25 141.712ZM393.974 141.724C393.974 141.196 393.866 140.732 393.65 140.332C393.434 139.932 393.138 139.624 392.762 139.408C392.394 139.192 391.986 139.084 391.538 139.084C391.074 139.084 390.658 139.188 390.29 139.396C389.922 139.604 389.63 139.908 389.414 140.308C389.206 140.7 389.102 141.168 389.102 141.712C389.102 142.248 389.206 142.72 389.414 143.128C389.63 143.528 389.922 143.836 390.29 144.052C390.658 144.26 391.074 144.364 391.538 144.364C391.986 144.364 392.394 144.256 392.762 144.04C393.138 143.824 393.434 143.516 393.65 143.116C393.866 142.716 393.974 142.252 393.974 141.724ZM397.151 137.212C396.983 137.212 396.839 137.152 396.719 137.032C396.599 136.912 396.539 136.764 396.539 136.588C396.539 136.412 396.599 136.268 396.719 136.156C396.839 136.036 396.983 135.976 397.151 135.976C397.319 135.976 397.463 136.036 397.583 136.156C397.703 136.268 397.763 136.412 397.763 136.588C397.763 136.764 397.703 136.912 397.583 137.032C397.463 137.152 397.319 137.212 397.151 137.212ZM397.571 138.448V145H396.731V138.448H397.571ZM400.566 139.156V143.224C400.566 143.624 400.642 143.9 400.794 144.052C400.946 144.204 401.214 144.28 401.598 144.28H402.366V145H401.466C400.874 145 400.434 144.864 400.146 144.592C399.858 144.312 399.714 143.856 399.714 143.224V139.156H398.802V138.448H399.714V136.804H400.566V138.448H402.366V139.156H400.566Z" fill="white"/>
<path d="M380.209 146.2H402.786V146.8H380.209V146.2Z" fill="white"/>
<path d="M110.646 411.724C110.646 411.044 110.782 410.452 111.054 409.948C111.326 409.436 111.702 409.044 112.182 408.772C112.662 408.492 113.21 408.352 113.826 408.352C114.634 408.352 115.298 408.552 115.818 408.952C116.346 409.352 116.686 409.896 116.838 410.584H115.938C115.826 410.112 115.582 409.744 115.206 409.48C114.838 409.208 114.378 409.072 113.826 409.072C113.386 409.072 112.99 409.172 112.638 409.372C112.286 409.572 112.006 409.872 111.798 410.272C111.598 410.664 111.498 411.148 111.498 411.724C111.498 412.3 111.598 412.788 111.798 413.188C112.006 413.588 112.286 413.888 112.638 414.088C112.99 414.288 113.386 414.388 113.826 414.388C114.378 414.388 114.838 414.256 115.206 413.992C115.582 413.72 115.826 413.344 115.938 412.864H116.838C116.686 413.536 116.346 414.076 115.818 414.484C115.29 414.892 114.626 415.096 113.826 415.096C113.21 415.096 112.662 414.96 112.182 414.688C111.702 414.408 111.326 414.016 111.054 413.512C110.782 413 110.646 412.404 110.646 411.724ZM121.51 408.328C122.006 408.328 122.45 408.432 122.842 408.64C123.242 408.848 123.554 409.168 123.778 409.6C124.01 410.024 124.126 410.544 124.126 411.16V415H123.298V411.256C123.298 410.544 123.118 410 122.758 409.624C122.406 409.248 121.922 409.06 121.306 409.06C120.674 409.06 120.17 409.26 119.794 409.66C119.418 410.06 119.23 410.648 119.23 411.424V415H118.39V406.12H119.23V409.564C119.438 409.172 119.742 408.868 120.142 408.652C120.55 408.436 121.006 408.328 121.51 408.328ZM125.599 411.712C125.599 411.04 125.731 410.452 125.995 409.948C126.267 409.436 126.639 409.044 127.111 408.772C127.591 408.492 128.131 408.352 128.731 408.352C129.355 408.352 129.891 408.496 130.339 408.784C130.795 409.072 131.123 409.44 131.323 409.888V408.448H132.163V415H131.323V413.548C131.115 413.996 130.783 414.368 130.327 414.664C129.879 414.952 129.343 415.096 128.719 415.096C128.127 415.096 127.591 414.956 127.111 414.676C126.639 414.396 126.267 414 125.995 413.488C125.731 412.976 125.599 412.384 125.599 411.712ZM131.323 411.724C131.323 411.196 131.215 410.732 130.999 410.332C130.783 409.932 130.487 409.624 130.111 409.408C129.743 409.192 129.335 409.084 128.887 409.084C128.423 409.084 128.007 409.188 127.639 409.396C127.271 409.604 126.979 409.908 126.763 410.308C126.555 410.7 126.451 411.168 126.451 411.712C126.451 412.248 126.555 412.72 126.763 413.128C126.979 413.528 127.271 413.836 127.639 414.052C128.007 414.26 128.423 414.364 128.887 414.364C129.335 414.364 129.743 414.256 130.111 414.04C130.487 413.824 130.783 413.516 130.999 413.116C131.215 412.716 131.323 412.252 131.323 411.724ZM137.153 408.328C137.937 408.328 138.577 408.572 139.073 409.06C139.569 409.54 139.817 410.24 139.817 411.16V415H138.989V411.256C138.989 410.544 138.809 410 138.449 409.624C138.097 409.248 137.613 409.06 136.997 409.06C136.365 409.06 135.861 409.26 135.485 409.66C135.109 410.06 134.921 410.648 134.921 411.424V415H134.081V408.448H134.921V409.564C135.129 409.164 135.429 408.86 135.821 408.652C136.213 408.436 136.657 408.328 137.153 408.328ZM144.423 408.352C145.039 408.352 145.575 408.496 146.031 408.784C146.487 409.072 146.815 409.436 147.015 409.876V408.448H147.855V415.168C147.855 415.768 147.723 416.3 147.459 416.764C147.203 417.228 146.843 417.584 146.379 417.832C145.915 418.088 145.387 418.216 144.795 418.216C143.955 418.216 143.255 418.016 142.695 417.616C142.143 417.216 141.799 416.672 141.663 415.984H142.491C142.635 416.44 142.907 416.804 143.307 417.076C143.715 417.348 144.211 417.484 144.795 417.484C145.219 417.484 145.599 417.392 145.935 417.208C146.271 417.032 146.535 416.768 146.727 416.416C146.919 416.064 147.015 415.648 147.015 415.168V413.548C146.807 413.996 146.475 414.368 146.019 414.664C145.571 414.952 145.039 415.096 144.423 415.096C143.823 415.096 143.283 414.956 142.803 414.676C142.331 414.396 141.959 414 141.687 413.488C141.423 412.976 141.291 412.384 141.291 411.712C141.291 411.04 141.423 410.452 141.687 409.948C141.959 409.436 142.331 409.044 142.803 408.772C143.283 408.492 143.823 408.352 144.423 408.352ZM147.015 411.724C147.015 411.196 146.907 410.732 146.691 410.332C146.475 409.932 146.179 409.624 145.803 409.408C145.435 409.192 145.027 409.084 144.579 409.084C144.115 409.084 143.699 409.188 143.331 409.396C142.963 409.604 142.671 409.908 142.455 410.308C142.247 410.7 142.143 411.168 142.143 411.712C142.143 412.248 142.247 412.72 142.455 413.128C142.671 413.528 142.963 413.836 143.331 414.052C143.699 414.26 144.115 414.364 144.579 414.364C145.027 414.364 145.435 414.256 145.803 414.04C146.179 413.824 146.475 413.516 146.691 413.116C146.907 412.716 147.015 412.252 147.015 411.724ZM155.701 411.388C155.701 411.676 155.693 411.896 155.677 412.048H150.241C150.265 412.544 150.385 412.968 150.601 413.32C150.817 413.672 151.101 413.94 151.453 414.124C151.805 414.3 152.189 414.388 152.605 414.388C153.149 414.388 153.605 414.256 153.973 413.992C154.349 413.728 154.597 413.372 154.717 412.924H155.605C155.445 413.564 155.101 414.088 154.573 414.496C154.053 414.896 153.397 415.096 152.605 415.096C151.989 415.096 151.437 414.96 150.949 414.688C150.461 414.408 150.077 414.016 149.797 413.512C149.525 413 149.389 412.404 149.389 411.724C149.389 411.044 149.525 410.448 149.797 409.936C150.069 409.424 150.449 409.032 150.937 408.76C151.425 408.488 151.981 408.352 152.605 408.352C153.229 408.352 153.773 408.488 154.237 408.76C154.709 409.032 155.069 409.4 155.317 409.864C155.573 410.32 155.701 410.828 155.701 411.388ZM154.849 411.364C154.857 410.876 154.757 410.46 154.549 410.116C154.349 409.772 154.073 409.512 153.721 409.336C153.369 409.16 152.985 409.072 152.569 409.072C151.945 409.072 151.413 409.272 150.973 409.672C150.533 410.072 150.289 410.636 150.241 411.364H154.849ZM161.358 409.888C161.566 409.448 161.894 409.084 162.342 408.796C162.798 408.5 163.338 408.352 163.962 408.352C164.554 408.352 165.086 408.492 165.558 408.772C166.038 409.044 166.41 409.436 166.674 409.948C166.946 410.452 167.082 411.04 167.082 411.712C167.082 412.384 166.946 412.976 166.674 413.488C166.41 414 166.038 414.396 165.558 414.676C165.086 414.956 164.554 415.096 163.962 415.096C163.346 415.096 162.81 414.952 162.354 414.664C161.898 414.368 161.566 414 161.358 413.56V418.096H160.53V408.448H161.358V409.888ZM166.23 411.712C166.23 411.168 166.122 410.7 165.906 410.308C165.698 409.908 165.41 409.604 165.042 409.396C164.674 409.188 164.258 409.084 163.794 409.084C163.346 409.084 162.934 409.192 162.558 409.408C162.19 409.624 161.898 409.932 161.682 410.332C161.466 410.732 161.358 411.196 161.358 411.724C161.358 412.252 161.466 412.716 161.682 413.116C161.898 413.516 162.19 413.824 162.558 414.04C162.934 414.256 163.346 414.364 163.794 414.364C164.258 414.364 164.674 414.26 165.042 414.052C165.41 413.836 165.698 413.528 165.906 413.128C166.122 412.72 166.23 412.248 166.23 411.712ZM168.244 411.712C168.244 411.04 168.376 410.452 168.64 409.948C168.912 409.436 169.284 409.044 169.756 408.772C170.236 408.492 170.776 408.352 171.376 408.352C172 408.352 172.536 408.496 172.984 408.784C173.44 409.072 173.768 409.44 173.968 409.888V408.448H174.808V415H173.968V413.548C173.76 413.996 173.428 414.368 172.972 414.664C172.524 414.952 171.988 415.096 171.364 415.096C170.772 415.096 170.236 414.956 169.756 414.676C169.284 414.396 168.912 414 168.64 413.488C168.376 412.976 168.244 412.384 168.244 411.712ZM173.968 411.724C173.968 411.196 173.86 410.732 173.644 410.332C173.428 409.932 173.132 409.624 172.756 409.408C172.388 409.192 171.98 409.084 171.532 409.084C171.068 409.084 170.652 409.188 170.284 409.396C169.916 409.604 169.624 409.908 169.408 410.308C169.2 410.7 169.096 411.168 169.096 411.712C169.096 412.248 169.2 412.72 169.408 413.128C169.624 413.528 169.916 413.836 170.284 414.052C170.652 414.26 171.068 414.364 171.532 414.364C171.98 414.364 172.388 414.256 172.756 414.04C173.132 413.824 173.428 413.516 173.644 413.116C173.86 412.716 173.968 412.252 173.968 411.724ZM178.982 415.096C178.23 415.096 177.614 414.924 177.134 414.58C176.662 414.228 176.398 413.752 176.342 413.152H177.206C177.246 413.52 177.418 413.82 177.722 414.052C178.034 414.276 178.45 414.388 178.97 414.388C179.426 414.388 179.782 414.28 180.038 414.064C180.302 413.848 180.434 413.58 180.434 413.26C180.434 413.036 180.362 412.852 180.218 412.708C180.074 412.564 179.89 412.452 179.666 412.372C179.45 412.284 179.154 412.192 178.778 412.096C178.29 411.968 177.894 411.84 177.59 411.712C177.286 411.584 177.026 411.396 176.81 411.148C176.602 410.892 176.498 410.552 176.498 410.128C176.498 409.808 176.594 409.512 176.786 409.24C176.978 408.968 177.25 408.752 177.602 408.592C177.954 408.432 178.354 408.352 178.802 408.352C179.506 408.352 180.074 408.532 180.506 408.892C180.938 409.244 181.17 409.732 181.202 410.356H180.362C180.338 409.972 180.186 409.664 179.906 409.432C179.634 409.192 179.258 409.072 178.778 409.072C178.354 409.072 178.01 409.172 177.746 409.372C177.482 409.572 177.35 409.82 177.35 410.116C177.35 410.372 177.426 410.584 177.578 410.752C177.738 410.912 177.934 411.04 178.166 411.136C178.398 411.224 178.71 411.324 179.102 411.436C179.574 411.564 179.95 411.688 180.23 411.808C180.51 411.928 180.75 412.104 180.95 412.336C181.15 412.568 181.254 412.876 181.262 413.26C181.262 413.612 181.166 413.928 180.974 414.208C180.782 414.48 180.514 414.696 180.17 414.856C179.826 415.016 179.43 415.096 178.982 415.096ZM185.099 415.096C184.347 415.096 183.731 414.924 183.251 414.58C182.779 414.228 182.515 413.752 182.459 413.152H183.323C183.363 413.52 183.535 413.82 183.839 414.052C184.151 414.276 184.567 414.388 185.087 414.388C185.543 414.388 185.899 414.28 186.155 414.064C186.419 413.848 186.551 413.58 186.551 413.26C186.551 413.036 186.479 412.852 186.335 412.708C186.191 412.564 186.007 412.452 185.783 412.372C185.567 412.284 185.271 412.192 184.895 412.096C184.407 411.968 184.011 411.84 183.707 411.712C183.403 411.584 183.143 411.396 182.927 411.148C182.719 410.892 182.615 410.552 182.615 410.128C182.615 409.808 182.711 409.512 182.903 409.24C183.095 408.968 183.367 408.752 183.719 408.592C184.071 408.432 184.471 408.352 184.919 408.352C185.623 408.352 186.191 408.532 186.623 408.892C187.055 409.244 187.287 409.732 187.319 410.356H186.479C186.455 409.972 186.303 409.664 186.023 409.432C185.751 409.192 185.375 409.072 184.895 409.072C184.471 409.072 184.127 409.172 183.863 409.372C183.599 409.572 183.467 409.82 183.467 410.116C183.467 410.372 183.543 410.584 183.695 410.752C183.855 410.912 184.051 411.04 184.283 411.136C184.515 411.224 184.827 411.324 185.219 411.436C185.691 411.564 186.067 411.688 186.347 411.808C186.627 411.928 186.867 412.104 187.067 412.336C187.267 412.568 187.371 412.876 187.379 413.26C187.379 413.612 187.283 413.928 187.091 414.208C186.899 414.48 186.631 414.696 186.287 414.856C185.943 415.016 185.547 415.096 185.099 415.096ZM197.6 408.448L195.548 415H194.708L192.896 409.504L191.084 415H190.232L188.18 408.448H189.032L190.664 414.148L192.5 408.448H193.34L195.152 414.16L196.772 408.448H197.6ZM201.613 415.096C200.997 415.096 200.441 414.96 199.945 414.688C199.457 414.408 199.069 414.016 198.781 413.512C198.501 413 198.361 412.404 198.361 411.724C198.361 411.044 198.505 410.452 198.793 409.948C199.081 409.436 199.473 409.044 199.969 408.772C200.465 408.492 201.021 408.352 201.637 408.352C202.253 408.352 202.809 408.492 203.305 408.772C203.809 409.044 204.201 409.436 204.481 409.948C204.769 410.452 204.913 411.044 204.913 411.724C204.913 412.396 204.769 412.988 204.481 413.5C204.193 414.012 203.797 414.408 203.293 414.688C202.789 414.96 202.229 415.096 201.613 415.096ZM201.613 414.364C202.045 414.364 202.445 414.268 202.813 414.076C203.181 413.876 203.477 413.58 203.701 413.188C203.933 412.788 204.049 412.3 204.049 411.724C204.049 411.148 203.937 410.664 203.713 410.272C203.489 409.872 203.193 409.576 202.825 409.384C202.457 409.184 202.057 409.084 201.625 409.084C201.193 409.084 200.793 409.184 200.425 409.384C200.057 409.576 199.761 409.872 199.537 410.272C199.321 410.664 199.213 411.148 199.213 411.724C199.213 412.3 199.321 412.788 199.537 413.188C199.761 413.58 200.053 413.876 200.413 414.076C200.781 414.268 201.181 414.364 201.613 414.364ZM207.284 409.612C207.468 409.204 207.748 408.888 208.124 408.664C208.508 408.44 208.976 408.328 209.528 408.328V409.204H209.3C208.692 409.204 208.204 409.368 207.836 409.696C207.468 410.024 207.284 410.572 207.284 411.34V415H206.444V408.448H207.284V409.612ZM210.408 411.712C210.408 411.04 210.544 410.452 210.816 409.948C211.088 409.436 211.46 409.044 211.932 408.772C212.412 408.492 212.952 408.352 213.552 408.352C214.128 408.352 214.648 408.492 215.112 408.772C215.576 409.052 215.916 409.416 216.132 409.864V406.12H216.972V415H216.132V413.536C215.932 413.992 215.604 414.368 215.148 414.664C214.692 414.952 214.156 415.096 213.54 415.096C212.94 415.096 212.4 414.956 211.92 414.676C211.448 414.396 211.076 414 210.804 413.488C210.54 412.976 210.408 412.384 210.408 411.712ZM216.132 411.724C216.132 411.196 216.024 410.732 215.808 410.332C215.592 409.932 215.296 409.624 214.92 409.408C214.552 409.192 214.144 409.084 213.696 409.084C213.232 409.084 212.816 409.188 212.448 409.396C212.08 409.604 211.788 409.908 211.572 410.308C211.364 410.7 211.26 411.168 211.26 411.712C211.26 412.248 211.364 412.72 211.572 413.128C211.788 413.528 212.08 413.836 212.448 414.052C212.816 414.26 213.232 414.364 213.696 414.364C214.144 414.364 214.552 414.256 214.92 414.04C215.296 413.824 215.592 413.516 215.808 413.116C216.024 412.716 216.132 412.252 216.132 411.724Z" fill="white"/>
<path d="M110.07 416.2H217.932V416.8H110.07V416.2Z" fill="white"/>
<g filter="url(#filter1_d)">
<rect x="172" y="499" width="175" height="41" rx="10" fill="#5AA58F"/>
<path d="M236.821 525.098C236.177 525.098 235.598 524.986 235.085 524.762C234.581 524.529 234.184 524.211 233.895 523.81C233.606 523.399 233.456 522.928 233.447 522.396H234.805C234.852 522.853 235.038 523.241 235.365 523.558C235.701 523.866 236.186 524.02 236.821 524.02C237.428 524.02 237.904 523.871 238.249 523.572C238.604 523.264 238.781 522.872 238.781 522.396C238.781 522.023 238.678 521.719 238.473 521.486C238.268 521.253 238.011 521.075 237.703 520.954C237.395 520.833 236.98 520.702 236.457 520.562C235.813 520.394 235.295 520.226 234.903 520.058C234.52 519.89 234.189 519.629 233.909 519.274C233.638 518.91 233.503 518.425 233.503 517.818C233.503 517.286 233.638 516.815 233.909 516.404C234.18 515.993 234.558 515.676 235.043 515.452C235.538 515.228 236.102 515.116 236.737 515.116C237.652 515.116 238.398 515.345 238.977 515.802C239.565 516.259 239.896 516.866 239.971 517.622H238.571C238.524 517.249 238.328 516.922 237.983 516.642C237.638 516.353 237.18 516.208 236.611 516.208C236.079 516.208 235.645 516.348 235.309 516.628C234.973 516.899 234.805 517.281 234.805 517.776C234.805 518.131 234.903 518.42 235.099 518.644C235.304 518.868 235.552 519.041 235.841 519.162C236.14 519.274 236.555 519.405 237.087 519.554C237.731 519.731 238.249 519.909 238.641 520.086C239.033 520.254 239.369 520.52 239.649 520.884C239.929 521.239 240.069 521.724 240.069 522.34C240.069 522.816 239.943 523.264 239.691 523.684C239.439 524.104 239.066 524.445 238.571 524.706C238.076 524.967 237.493 525.098 236.821 525.098ZM242.672 516.082C242.429 516.082 242.224 515.998 242.056 515.83C241.888 515.662 241.804 515.457 241.804 515.214C241.804 514.971 241.888 514.766 242.056 514.598C242.224 514.43 242.429 514.346 242.672 514.346C242.905 514.346 243.101 514.43 243.26 514.598C243.428 514.766 243.512 514.971 243.512 515.214C243.512 515.457 243.428 515.662 243.26 515.83C243.101 515.998 242.905 516.082 242.672 516.082ZM243.288 517.328V525H242.014V517.328H243.288ZM248.693 517.202C249.356 517.202 249.934 517.347 250.429 517.636C250.933 517.925 251.306 518.289 251.549 518.728V517.328H252.837V525.168C252.837 525.868 252.688 526.489 252.389 527.03C252.09 527.581 251.661 528.01 251.101 528.318C250.55 528.626 249.906 528.78 249.169 528.78C248.161 528.78 247.321 528.542 246.649 528.066C245.977 527.59 245.58 526.941 245.459 526.12H246.719C246.859 526.587 247.148 526.96 247.587 527.24C248.026 527.529 248.553 527.674 249.169 527.674C249.869 527.674 250.438 527.455 250.877 527.016C251.325 526.577 251.549 525.961 251.549 525.168V523.558C251.297 524.006 250.924 524.379 250.429 524.678C249.934 524.977 249.356 525.126 248.693 525.126C248.012 525.126 247.391 524.958 246.831 524.622C246.28 524.286 245.846 523.815 245.529 523.208C245.212 522.601 245.053 521.911 245.053 521.136C245.053 520.352 245.212 519.666 245.529 519.078C245.846 518.481 246.28 518.019 246.831 517.692C247.391 517.365 248.012 517.202 248.693 517.202ZM251.549 521.15C251.549 520.571 251.432 520.067 251.199 519.638C250.966 519.209 250.648 518.882 250.247 518.658C249.855 518.425 249.421 518.308 248.945 518.308C248.469 518.308 248.035 518.42 247.643 518.644C247.251 518.868 246.938 519.195 246.705 519.624C246.472 520.053 246.355 520.557 246.355 521.136C246.355 521.724 246.472 522.237 246.705 522.676C246.938 523.105 247.251 523.437 247.643 523.67C248.035 523.894 248.469 524.006 248.945 524.006C249.421 524.006 249.855 523.894 250.247 523.67C250.648 523.437 250.966 523.105 251.199 522.676C251.432 522.237 251.549 521.729 251.549 521.15ZM258.798 517.188C259.731 517.188 260.487 517.473 261.066 518.042C261.645 518.602 261.934 519.414 261.934 520.478V525H260.674V520.66C260.674 519.895 260.483 519.311 260.1 518.91C259.717 518.499 259.195 518.294 258.532 518.294C257.86 518.294 257.323 518.504 256.922 518.924C256.53 519.344 256.334 519.955 256.334 520.758V525H255.06V517.328H256.334V518.42C256.586 518.028 256.927 517.725 257.356 517.51C257.795 517.295 258.275 517.188 258.798 517.188ZM271.233 525.126C270.515 525.126 269.861 524.963 269.273 524.636C268.695 524.309 268.237 523.847 267.901 523.25C267.575 522.643 267.411 521.943 267.411 521.15C267.411 520.366 267.579 519.675 267.915 519.078C268.261 518.471 268.727 518.009 269.315 517.692C269.903 517.365 270.561 517.202 271.289 517.202C272.017 517.202 272.675 517.365 273.263 517.692C273.851 518.009 274.313 518.467 274.649 519.064C274.995 519.661 275.167 520.357 275.167 521.15C275.167 521.943 274.99 522.643 274.635 523.25C274.29 523.847 273.819 524.309 273.221 524.636C272.624 524.963 271.961 525.126 271.233 525.126ZM271.233 524.006C271.691 524.006 272.12 523.899 272.521 523.684C272.923 523.469 273.245 523.147 273.487 522.718C273.739 522.289 273.865 521.766 273.865 521.15C273.865 520.534 273.744 520.011 273.501 519.582C273.259 519.153 272.941 518.835 272.549 518.63C272.157 518.415 271.733 518.308 271.275 518.308C270.809 518.308 270.379 518.415 269.987 518.63C269.605 518.835 269.297 519.153 269.063 519.582C268.83 520.011 268.713 520.534 268.713 521.15C268.713 521.775 268.825 522.303 269.049 522.732C269.283 523.161 269.591 523.483 269.973 523.698C270.356 523.903 270.776 524.006 271.233 524.006ZM283.717 517.328V525H282.443V523.866C282.2 524.258 281.859 524.566 281.421 524.79C280.991 525.005 280.515 525.112 279.993 525.112C279.395 525.112 278.859 524.991 278.383 524.748C277.907 524.496 277.529 524.123 277.249 523.628C276.978 523.133 276.843 522.531 276.843 521.822V517.328H278.103V521.654C278.103 522.41 278.294 522.993 278.677 523.404C279.059 523.805 279.582 524.006 280.245 524.006C280.926 524.006 281.463 523.796 281.855 523.376C282.247 522.956 282.443 522.345 282.443 521.542V517.328H283.717ZM287.492 518.378V522.9C287.492 523.273 287.571 523.539 287.73 523.698C287.888 523.847 288.164 523.922 288.556 523.922H289.494V525H288.346C287.636 525 287.104 524.837 286.75 524.51C286.395 524.183 286.218 523.647 286.218 522.9V518.378H285.224V517.328H286.218V515.396H287.492V517.328H289.494V518.378H287.492Z" fill="white"/>
</g>
<path d="M124.11 110H121.602L114.056 98.582V110H111.548V94.688H114.056L121.602 106.084V94.688H124.11V110ZM126.568 103.884C126.568 102.667 126.817 101.589 127.316 100.65C127.829 99.7113 128.519 98.9853 129.384 98.472C130.264 97.944 131.232 97.68 132.288 97.68C133.241 97.68 134.07 97.8707 134.774 98.252C135.493 98.6187 136.065 99.0807 136.49 99.638V97.878H139.02V110H136.49V108.196C136.065 108.768 135.485 109.245 134.752 109.626C134.019 110.007 133.183 110.198 132.244 110.198C131.203 110.198 130.249 109.934 129.384 109.406C128.519 108.863 127.829 108.115 127.316 107.162C126.817 106.194 126.568 105.101 126.568 103.884ZM136.49 103.928C136.49 103.092 136.314 102.366 135.962 101.75C135.625 101.134 135.177 100.665 134.62 100.342C134.063 100.019 133.461 99.858 132.816 99.858C132.171 99.858 131.569 100.019 131.012 100.342C130.455 100.65 130 101.112 129.648 101.728C129.311 102.329 129.142 103.048 129.142 103.884C129.142 104.72 129.311 105.453 129.648 106.084C130 106.715 130.455 107.199 131.012 107.536C131.584 107.859 132.185 108.02 132.816 108.02C133.461 108.02 134.063 107.859 134.62 107.536C135.177 107.213 135.625 106.744 135.962 106.128C136.314 105.497 136.49 104.764 136.49 103.928ZM156.988 97.68C157.941 97.68 158.792 97.878 159.54 98.274C160.303 98.67 160.897 99.2567 161.322 100.034C161.762 100.811 161.982 101.75 161.982 102.85V110H159.496V103.224C159.496 102.139 159.225 101.31 158.682 100.738C158.139 100.151 157.399 99.858 156.46 99.858C155.521 99.858 154.773 100.151 154.216 100.738C153.673 101.31 153.402 102.139 153.402 103.224V110H150.916V103.224C150.916 102.139 150.645 101.31 150.102 100.738C149.559 100.151 148.819 99.858 147.88 99.858C146.941 99.858 146.193 100.151 145.636 100.738C145.093 101.31 144.822 102.139 144.822 103.224V110H142.314V97.878H144.822V99.264C145.233 98.7653 145.753 98.3767 146.384 98.098C147.015 97.8193 147.689 97.68 148.408 97.68C149.376 97.68 150.241 97.8853 151.004 98.296C151.767 98.7067 152.353 99.3007 152.764 100.078C153.131 99.3447 153.703 98.7653 154.48 98.34C155.257 97.9 156.093 97.68 156.988 97.68ZM176.283 103.642C176.283 104.097 176.254 104.507 176.195 104.874H166.933C167.007 105.842 167.366 106.619 168.011 107.206C168.657 107.793 169.449 108.086 170.387 108.086C171.737 108.086 172.69 107.521 173.247 106.392H175.953C175.587 107.507 174.919 108.423 173.951 109.142C172.998 109.846 171.81 110.198 170.387 110.198C169.229 110.198 168.187 109.941 167.263 109.428C166.354 108.9 165.635 108.167 165.107 107.228C164.594 106.275 164.337 105.175 164.337 103.928C164.337 102.681 164.587 101.589 165.085 100.65C165.599 99.6967 166.31 98.9633 167.219 98.45C168.143 97.9367 169.199 97.68 170.387 97.68C171.531 97.68 172.551 97.9293 173.445 98.428C174.34 98.9267 175.037 99.6307 175.535 100.54C176.034 101.435 176.283 102.469 176.283 103.642ZM173.665 102.85C173.651 101.926 173.321 101.185 172.675 100.628C172.03 100.071 171.231 99.792 170.277 99.792C169.412 99.792 168.671 100.071 168.055 100.628C167.439 101.171 167.073 101.911 166.955 102.85H173.665Z" fill="white"/>
<defs>
<filter id="filter0_d" x="0" y="0" width="531" height="626" filterUnits="userSpaceOnUse" color-interpolation-filters="sRGB">
<feFlood flood-opacity="0" result="BackgroundImageFix"/>
<feColorMatrix in="SourceAlpha" type="matrix" values="0 0 0 0 0 0 0 0 0 0 0 0 0 0 0 0 0 0 127 0"/>
<feOffset dx="-3" dy="4"/>
<feGaussianBlur stdDeviation="7"/>
<feColorMatrix type="matrix" values="0 0 0 0 0 0 0 0 0 0 0 0 0 0 0 0 0 0 0.15 0"/>
<feBlend mode="normal" in2="BackgroundImageFix" result="effect1_dropShadow"/>
<feBlend mode="normal" in="SourceGraphic" in2="effect1_dropShadow" result="shape"/>
</filter>
<filter id="filter1_d" x="155" y="489" width="203" height="69" filterUnits="userSpaceOnUse" color-interpolation-filters="sRGB">
<feFlood flood-opacity="0" result="BackgroundImageFix"/>
<feColorMatrix in="SourceAlpha" type="matrix" values="0 0 0 0 0 0 0 0 0 0 0 0 0 0 0 0 0 0 127 0"/>
<feOffset dx="-3" dy="4"/>
<feGaussianBlur stdDeviation="7"/>
<feColorMatrix type="matrix" values="0 0 0 0 0 0 0 0 0 0 0 0 0 0 0 0 0 0 0.15 0"/>
<feBlend mode="normal" in2="BackgroundImageFix" result="effect1_dropShadow"/>
<feBlend mode="normal" in="SourceGraphic" in2="effect1_dropShadow" result="shape"/>
</filter>
</defs>
</svg>
